<?xml version="1.0" encoding="UTF-8"?>
<svg id="Calque_2" data-name="Calque 2" xmlns="http://www.w3.org/2000/svg" viewBox="0 0 501.5 8624.5">
  <defs>
    <style>
      .cls-1 {
        fill: #2c8097;
        stroke-width: 0px;
      }
    </style>
  </defs>
  <g id="Calque_2-2" data-name="Calque 2">
    <polygon class="cls-1" points="501.5 0 501.5 1080 501.5 8624.5 386 8229.5 148 8128.5 279 7850.5 159 7739.5 87 7542.5 192 7322.5 145 7166.5 228 7007.5 283 6942.5 169 6762.5 49 6442.5 139 6318.5 14 6135.5 244 5885.5 114 5739.5 152 5638.5 242 5236.5 102 5102.5 60 4663.5 183 4578.5 0 4097.5 206 4005.5 156 3634.5 250.75 3553.5 183 3460.5 291 2998.5 221 2905.5 106 2836.5 308 1877.5 220 1315.5 269 1222.5 167 779.5 338 530.5 501.5 0"/>
  </g>
</svg>