<?xml version="1.0" encoding="UTF-8"?>
<svg id="Calque_2" data-name="Calque 2" xmlns="http://www.w3.org/2000/svg" viewBox="0 0 424.5 8540.5">
  <defs>
    <style>
      .cls-1 {
        fill: #115d6f;
        stroke-width: 0px;
      }
    </style>
  </defs>
  <g id="Calque_3" data-name="Calque 3">
    <polygon class="cls-1" points="0 0 70.5 342 250.75 398 138.5 568 175.5 648 98.5 736 240.5 772 152.5 1032 291.5 1114 179.5 1219 266.5 1295 250.75 1460 163.5 1555 68.5 1625 195.5 1684 343.5 2094 153.5 2196 424.5 2372 382.5 2457 259.5 2475 188.5 2706 324.5 2789 230.5 3020 99.5 3197 205.5 3186 157.5 3343 318.5 3416 380.5 3695 295.5 3895 167.5 3944 276.5 3988 380.5 4269 231.5 4539 271.5 4579 323.5 4868 124.5 4905 197.5 4935 275.5 5099 136.5 5601 90.5 5639 140.5 5677 348.5 5721 122.5 6085 204.5 6099 172.5 6313 192.5 6453 92.5 6716 126.5 6790 89.5 6838 139.5 6863 237.5 7129 193.5 7191 224.5 7215 128.5 7373 258.5 7616 287.5 7726 131.5 7866 141.5 7896 121.5 7927 25.5 8411 0 8540.5 0 0"/>
  </g>
</svg>