<?xml version="1.0" encoding="UTF-8"?>
<svg id="Calque_2" data-name="Calque 2" xmlns="http://www.w3.org/2000/svg" viewBox="0 0 424.5 8629">
  <defs>
    <style>
      .cls-1 {
        fill: #115d6f;
        stroke-width: 0px;
      }
    </style>
  </defs>
  <g id="Calque_3" data-name="Calque 3">
    <polygon class="cls-1" points="424.5 8629 354 8198.5 173.75 8142.5 286 7972.5 249 7892.5 326 7804.5 184 7768.5 272 7508.5 133 7426.5 245 7321.5 158 7245.5 173.75 7080.5 261 6985.5 356 6915.5 229 6856.5 81 6446.5 271 6344.5 0 6168.5 42 6083.5 165 6065.5 236 5834.5 100 5751.5 194 5520.5 325 5343.5 219 5354.5 267 5197.5 106 5124.5 44 4845.5 129 4645.5 257 4596.5 148 4552.5 44 4271.5 193 4001.5 153 3961.5 101 3672.5 300 3635.5 227 3605.5 149 3441.5 288 2939.5 334 2901.5 284 2863.5 76 2819.5 302 2455.5 220 2441.5 252 2227.5 232 2087.5 332 1824.5 298 1750.5 335 1702.5 285 1677.5 187 1411.5 231 1349.5 200 1325.5 296 1167.5 166 924.5 137 814.5 293 674.5 283 644.5 303 613.5 399 129.5 424.5 0 424.5 8629"/>
  </g>
</svg>