<?xml version="1.0" encoding="UTF-8"?>
<svg id="Calque_2" data-name="Calque 2" xmlns="http://www.w3.org/2000/svg" viewBox="0 0 501.5 8624.5">
  <defs>
    <style>
      .cls-1 {
        fill: #2c8097;
        stroke-width: 0px;
      }
    </style>
  </defs>
  <g id="Calque_2-2" data-name="Calque 2">
    <polygon class="cls-1" points="0 8624.5 0 7544.5 0 0 115.5 395 353.5 496 222.5 774 342.5 885 414.5 1082 309.5 1302 356.5 1458 273.5 1617 218.5 1682 332.5 1862 452.5 2182 362.5 2306 487.5 2489 257.5 2739 387.5 2885 349.5 2986 259.5 3388 399.5 3522 441.5 3961 318.5 4046 501.5 4527 295.5 4619 345.5 4990 250.75 5071 318.5 5164 210.5 5626 280.5 5719 395.5 5788 193.5 6747 281.5 7309 232.5 7402 334.5 7845 163.5 8094 0 8624.5"/>
  </g>
</svg>