<?xml version="1.0" encoding="UTF-8"?>
<svg id="Calque_2" data-name="Calque 2" xmlns="http://www.w3.org/2000/svg" xmlns:xlink="http://www.w3.org/1999/xlink" viewBox="0 0 370.31 490.46">
  <defs>
    <style>
      .cls-1 {
        fill: #318d99;
      }

      .cls-1, .cls-2, .cls-3, .cls-4, .cls-5, .cls-6, .cls-7, .cls-8, .cls-9, .cls-10, .cls-11 {
        stroke-width: 0px;
      }

      .cls-2 {
        fill: #bcb86e;
      }

      .cls-3 {
        fill: #015062;
      }

      .cls-4 {
        fill: url(#Dégradé_sans_nom_2);
      }

      .cls-5 {
        fill: #036778;
      }

      .cls-6 {
        fill: #8e644d;
      }

      .cls-7 {
        fill: #161310;
      }

      .cls-8 {
        fill: #c86f07;
      }

      .cls-9 {
        fill: #023341;
      }

      .cls-10 {
        fill: #4cafbf;
      }

      .cls-11 {
        fill: #202f36;
      }
    </style>
    <linearGradient id="Dégradé_sans_nom_2" data-name="Dégradé sans nom 2" x1="144.42" y1="229.71" x2="143.87" y2="304.44" gradientTransform="translate(399.43 120.91) rotate(90)" gradientUnits="userSpaceOnUse">
      <stop offset="0" stop-color="#f4bb36"/>
      <stop offset="1" stop-color="#db8204"/>
    </linearGradient>
  </defs>
  <g id="Calque_1-2" data-name="Calque 1">
    <g>
      <g>
        <path class="cls-9" d="M89.57,28.5c-4.01,2.89-8.27.69-9.94,5.59-.82.08-1.78-.27-2.48.31-1.13.94-14.95,19.83-18.63,22.67.89-1.44,2.29-3.22.93-3.73-4.14.28-30.51-9.36-31.68-10.56-.62-.64-.1-1.49-.31-1.86.31-2.79-.44-9.1,0-10.25.85-2.25,40.25-13.2,45.65-14.6,11.83-3.06,17.86-2.56,18.63-3.11,1.59-1.13-2-14.93,2.79-12.73-.97,11.14,1.29,13.25,1.24,13.97-.16,2.5-5.82,10.61-6.21,14.29Z"/>
        <path class="cls-5" d="M156.65,44.03c-5.57,2.54-19.05,5.89-26.09,9.32-8.99-16.27-31.48-24.21-37.89-22.36-.8.23-1.65.52-2.48.62.1-3.19-.64-2.95-.62-3.11.39-3.67,6.06-11.78,6.21-14.29,7.41,1.01,57.41,14.33,59.94,16.15,2.72,1.96,1.66,9.93.93,13.66Z"/>
      </g>
      <path class="cls-7" d="M284.15,255.51c.16,7.3,2.59,22.52-23.15,20.19-.85-.08-2.73-12.8-3.11-16.77-.74-7.89-.52-16.4-1.86-24.22,19.24,2.1,27.77-5.25,27.64,12.42h50.93c.86-8.04,3.69-51.44,2.8-54.35-.3-.96-5.88-2.69-1.55-7.76,5.63-.02,7.63-.88,7.14,4.97-.11,1.29-1.6,6.85-1.86,10.87-1.01,15.29-1.19,30.68-2.48,45.96,7.73,1.74,11-.63,11.49-.31.6.39.55,7.48,11.18.62.2,5.8,6.14.99,9.01,4.97,0,.21,0,.41,0,.62-11.09-.66-8.24,2.62-9.01,3.11-2.02,1.28-1.05-2.43-2.48-3.11-.34-.16-7.15-.21-7.45,0-.77.54.15,2.56-.62,3.11-1.2.84-11.76-1.25-12.73.93-1.49,3.35-.72,53.94-1.86,56.52-.78,1.77-5.41.61-6.83.93-3.96-4.14,2.3-7.91,2.48-8.39.89-2.34,2.12-43.85,1.55-50l-49.21-.31Z"/>
      <path class="cls-9" d="M87.7,490.34c-35.25-.83-49.73-10.63-67.7-41.97-.58-12.82,4.06-40.87,3.11-49.38-.33-2.92-3.78-11.37-4.35-15.53-7.86-57.75-2.17-142.09,3.11-201.24,1.34-15.03,2.62-30.37,4.35-45.34,1.03-8.88,5.75-23.97,1.86-25.15,4.09-10.53,8.78-20.88,14.29-30.74,6.28-11.25,13.79-20.08,16.15-23.91,3.68-2.85,17.51-21.73,18.63-22.67.7-.58,1.66-.23,2.48-.31-1.54,4.53-4.83,32.76-6.21,41.3-.94,2.25-2.37,1.36-2.48,1.86-2.74,12.59-5.75,25.16-8.07,37.89-.03,24.22-1.45,48.47-1.86,72.67-.37,22.19,1.25,157.76-.62,165.84-.26,1.13-2.67.49-1.24,2.17-13.67,7.51-22.24,22.14-25.47,37.27-.34,1.13.8,1.98,1.24.62,19.37-20.57,15.13-42.64,43.16-35.65l9.64,7.79v124.49Z"/>
      <path class="cls-7" d="M20,448.37C-2.36,409.37-.7,349.59.75,305.2c1.13-34.63,10.35-134.39,18.01-165.84,2.29-9.4,5.81-18.63,9.32-27.64,3.88,1.18-.84,16.28-1.86,25.15-1.73,14.97-3.01,30.31-4.35,45.34-5.27,59.15-10.97,143.49-3.11,201.24.57,4.16,4.02,12.6,4.35,15.53.96,8.5-3.68,36.56-3.11,49.38Z"/>
      <g>
        <path class="cls-5" d="M106.96,425.7c-.21-16.9-.32-60.04-.32-60.04,1.45-.09,7.15,1.35,7.15,1.35.34.09.7.22,1.25.38,9.97,2.89,18.8,9.04,26.08,16.39-.87,23.44-.08,61.48-19.64,76.13,13.35,7.61,17.16,14.56,17.16,14.56-8.92,8.23-19.42,12.98-31.35,15.06l-.32-63.82Z"/>
        <path class="cls-1" d="M158.51,428.49c-.11,17.11-7.28,34.33-19.88,45.96,0,0-3.81-6.95-17.16-14.56,19.57-14.65,18.77-52.69,19.64-76.13,11.99,12.12,17.5,27.79,17.39,44.72Z"/>
        <path class="cls-3" d="M87.7,490.34v-126.28l22.98-.65s-.11,12.5-.12,13.1v50.93l.12,61.4s-9.88,2.15-22.98,1.5Z"/>
      </g>
      <path class="cls-11" d="M172.8,404.27c.26-1.16.47-4.58.62-6.21,13.98-2.58,13,10.56-.62,6.21Z"/>
      <path class="cls-11" d="M175.28,378.8c-2.74.17-.61-5.45-.62-6.21,14.5-2.62,13.73,8.07.62,6.21Z"/>
      <path class="cls-10" d="M167.21,149.61c-7.09-8.61-20.51-23.23-28.88-29.81-4.44-3.49-26.31-17.21-30.74-18.01,1.8-30.24-3.03-43.97-14.91-70.81,6.41-1.85,28.89,6.09,37.89,22.36,1.91,3.46,6.26,15.03,11.18,24.22,3.28,6.13,16.65,27.34,17.39,29.19,1.1,2.76,7.14,36.44,8.07,42.86Z"/>
      <path class="cls-5" d="M165.34,114.21c-.76-2.97-1.29-10.37-6.21-7.45-.74-1.85-14.11-23.06-17.39-29.19,15.44.99,54.92-1.33,64.28,0,16.16,2.29,22.59,21.75,6.83,29.81-8.26,4.23-36.17,4.75-47.51,6.83Z"/>
      <path class="cls-9" d="M114.41,350.85c-1.2-.42-2.51-.94-3.73-1.24-16.34-4.11-36.67-1.97-51.55,6.21-1.43-1.68.98-1.05,1.24-2.17,1.87-8.08.25-143.65.62-165.84.41-24.2,1.83-48.45,1.86-72.67,2.32-12.72,5.34-25.3,8.07-37.89.11-.51,1.54.38,2.48-1.86,1.38-8.54,4.67-36.77,6.21-41.3,1.67-4.9,5.93-2.7,9.94-5.59-.02.16.73-.08.62,3.11-.75,22.76,3.78,45.81,2.48,68.63,5.98,1.19,14.41-1.09,14.29,1.55-1.79-.27-16.89-.4-17.39.31v128.57c8.2,2.61,16.9,4.29,24.22,9.01-4.74-.57-23.76-10.65-26.09-6.52-.69,31.88-.07,63.77,0,95.65,0,1.07.17,17.83.73,18.47.92,1.07,19.56-1.56,25.98,1.71v1.86Z"/>
      <path class="cls-3" d="M107.58,101.79c-.2-.04-.42.03-.62,0,.13-2.64-8.3-.36-14.29-1.55,1.3-22.83-3.23-45.88-2.48-68.63.83-.1,1.68-.39,2.48-.62,11.88,26.84,16.71,40.57,14.91,70.81Z"/>
      <path class="cls-3" d="M110.69,349.61c-6.76,2.5-21.71,2.28-22.63,1.21-.55-.64-.35-23.86-.35-24.93-.07-31.88-.69-63.77,0-95.65l22.98,6.02v113.35Z"/>
      <path class="cls-10" d="M117.52,354.15c-1.16-.47-2.27.21-3.6-.25,0-.93-3.23-1.3-3.23-2.23v-113.62c2.73,1.09,11.28,5.74,13.66,7.22,1.58,5.09,1.71,19.46,1.86,26.59.6,28.33.63,57.18,1.22,85.52-1.06,2.54-7.98-5.04-9.91-3.22Z"/>
      <g>
        <path class="cls-8" d="M115.07,367c-.55-.16-.73.14-1.28,0-28.03-6.99-59.51,6.13-78.88,26.71l-1.24-.62c3.23-15.12,11.79-29.75,25.47-37.27,14.88-8.18,35.21-10.32,51.55-6.21-.26,2.21,3.4,1.59,3.73,2.17.34.62-.31,7.65.38,9.72.09.26.75,3.57.27,5.49Z"/>
        <path class="cls-6" d="M33.67,393.09l1.24.62c-.44,1.36-1.58.51-1.24-.62Z"/>
        <path class="cls-2" d="M126.83,354.89c-.58-28.34-.02-56.76-.62-85.09-.15-7.14-.28-19.45-1.86-24.53.15.09.47-.09.62,0,6.71,4.25,31.35,26.62,32.92,33.23,1.42,5.99.94,97.11,1.24,114.91h-1.86c-3.04-13.39-18.93-29.63-30.43-36.45v-2.06Z"/>
        <path class="cls-4" d="M110.69,349.61c1.22.31,2.53.82,3.73,1.24,1.33.47,1.94.77,3.11,1.24.39.16,5.08,1.79,7.07,2.91.44.25,4.34,2.59,4.76,2.83,11.51,6.82,24.89,22.17,27.92,35.56h1.86c-.31-17.79.18-108.91-1.24-114.91-1.57-6.61-26.83-28.98-33.54-33.23l-15.14-7.33c-8.32-4.08-12.84-4-21.5-4.78,0-64.28,1.86-66.77,1.86-131.05.5-.71,15.6-.58,17.39-.31.2.03.42-.04.62,0,4.44.8,26.31,14.52,30.74,18.01,8.38,6.58,21.79,21.21,28.88,29.81.25,1.69,1.65,4.79,1.86,6.52,1.15,9.1,2.4,37.37,3.11,50,2.67,47.63,3.21,101.29,2.48,149.07-.09,5.97-.11,11.41,0,17.39.01.76-2.12,6.38.62,6.21-3.66.98-1.08,11.11-1.86,19.25-.16,1.63-.36,5.05-.62,6.21-.8,3.6-10.32,20.98-14.29,24.22.11-16.93-5.4-32.6-17.39-44.72-7.28-7.35-16.11-13.51-26.08-16.39-2.11-.55-4.36-1.07-4.36-1.07v-16.7Z"/>
      </g>
      <g>
        <path class="cls-5" d="M257.89,258.93c-8.24.65-16.32,3.36-21.74,9.94-4.05-4.9-1.53-28.41-3.11-31.37-.73-1.36-21.02-5.61-29.5-9.01-16.68-6.67-15.2-9.42-24.53-23.91-.66-1.03-4.7-.83-2.79-6.52l8.38.62c8.72,1.93,60.15,12.24,63.04,13.66,5.54,2.72,7.35,16.3,8.38,22.36,1.34,7.82,1.13,16.33,1.86,24.22Z"/>
        <g>
          <path class="cls-10" d="M229.32,343.4c.89-14.63-2.07-41.3-1.24-53.42.43-6.35,3.98-16.15,8.07-21.12,5.42-6.58,13.5-9.28,21.74-9.94.37,3.97,3.07,15.92,3.11,16.77.08,1.89-.45,23.91-.62,25.15-2.03,14.69-17.84,35.58-31.06,42.55Z"/>
          <path class="cls-5" d="M229.32,343.4c-2.51,1.32-6.2,2.55-9,3.51.83-12.45,2.29-36.57,3.41-46.37.33-2.86,1.99-9.01,4.35-10.56-.82,12.11,2.13,38.78,1.24,53.42Z"/>
        </g>
        <path class="cls-5" d="M228.08,289.98c-2.36,1.55-4.34,13.14-4.67,16-4.37,1.3-32.85-5.9-33.84-4.51-1.48,2.09,7.04,43.93,5.91,50.28-4.97.82-15.87,2.5-20.82,3.45.72-47.78.19-101.43-2.48-149.07,3.97-3.7,2.93-5.42,3.11-9.94,2.96,1.36,6.17,1.79,9.32,2.48l-8.38-.62c-1.9,5.69,2.13,5.49,2.79,6.52,9.33,14.49,7.86,17.24,24.53,23.91,8.48,3.39,28.78,7.65,29.5,9.01,1.58,2.96-.94,26.47,3.11,31.37-4.1,4.97-7.64,14.77-8.07,21.12Z"/>
        <path class="cls-7" d="M220.31,346.91c-6.83,1.84-16.92,3.55-24.84,4.84-2.96.48-5.64-1.82-5.62-4.82.09-13.6-1.53-43.71-.29-45.45.79-1.11,19.22-.22,28.9-.47,2.77-.07,5.01,2.21,4.94,4.98-.23,10.11.78,25.71.48,36.41-.06,2.13-1.51,3.97-3.57,4.52Z"/>
      </g>
    </g>
  </g>
</svg>