<?xml version="1.0" encoding="UTF-8"?>
<svg id="Calque_2" data-name="Calque 2" xmlns="http://www.w3.org/2000/svg" xmlns:xlink="http://www.w3.org/1999/xlink" viewBox="0 0 285.1 697.81">
  <defs>
    <style>
      .cls-1 {
        fill: #445e19;
      }

      .cls-1, .cls-2, .cls-3, .cls-4, .cls-5, .cls-6, .cls-7, .cls-8, .cls-9, .cls-10, .cls-11, .cls-12, .cls-13, .cls-14, .cls-15, .cls-16, .cls-17, .cls-18, .cls-19, .cls-20, .cls-21, .cls-22, .cls-23 {
        stroke-width: 0px;
      }

      .cls-2 {
        fill: #1f380f;
      }

      .cls-3 {
        fill: #383705;
      }

      .cls-4 {
        fill: #c0c244;
      }

      .cls-5 {
        fill: #1f2706;
      }

      .cls-6 {
        fill: #2a4f0f;
      }

      .cls-7 {
        fill: #77720c;
      }

      .cls-8 {
        fill: #4e4b07;
      }

      .cls-9 {
        fill: #8a8411;
      }

      .cls-10 {
        fill: #a8c2a3;
      }

      .cls-11 {
        fill: #60862d;
      }

      .cls-12 {
        fill: #e8e8ab;
      }

      .cls-13 {
        fill: url(#Dégradé_sans_nom_499);
      }

      .cls-14 {
        fill: url(#Dégradé_sans_nom_498);
      }

      .cls-15 {
        fill: url(#Dégradé_sans_nom_496);
      }

      .cls-16 {
        fill: url(#Dégradé_sans_nom_495);
      }

      .cls-17 {
        fill: url(#Dégradé_sans_nom_494);
      }

      .cls-18 {
        fill: url(#Dégradé_sans_nom_500);
      }

      .cls-19 {
        fill: #a5a534;
      }

      .cls-20 {
        fill: #65620a;
      }

      .cls-21 {
        fill: #194b1e;
      }

      .cls-22 {
        fill: #084645;
      }

      .cls-23 {
        fill: #9b921c;
      }
    </style>
    <linearGradient id="Dégradé_sans_nom_495" data-name="Dégradé sans nom 495" x1="33.4" y1="494.85" x2="112.7" y2="495.44" gradientUnits="userSpaceOnUse">
      <stop offset="0" stop-color="#80780e"/>
      <stop offset="1" stop-color="#474407"/>
    </linearGradient>
    <linearGradient id="Dégradé_sans_nom_494" data-name="Dégradé sans nom 494" x1="142.5" y1="222.24" x2="164.89" y2="244.32" gradientUnits="userSpaceOnUse">
      <stop offset="0" stop-color="#6e6a0b"/>
      <stop offset="1" stop-color="#524f06"/>
    </linearGradient>
    <linearGradient id="Dégradé_sans_nom_498" data-name="Dégradé sans nom 498" x1="52.76" y1="436.89" x2="120.9" y2="504.08" gradientUnits="userSpaceOnUse">
      <stop offset="0" stop-color="#837d0d"/>
      <stop offset="1" stop-color="#676108"/>
    </linearGradient>
    <linearGradient id="Dégradé_sans_nom_499" data-name="Dégradé sans nom 499" x1="39.11" y1="465.41" x2="110.89" y2="503.68" gradientUnits="userSpaceOnUse">
      <stop offset="0" stop-color="#8a8512"/>
      <stop offset="1" stop-color="#6c670a"/>
    </linearGradient>
    <linearGradient id="Dégradé_sans_nom_500" data-name="Dégradé sans nom 500" x1="175.11" y1="535.66" x2="155.05" y2="571.43" gradientUnits="userSpaceOnUse">
      <stop offset="0" stop-color="#69650a"/>
      <stop offset="1" stop-color="#534f06"/>
    </linearGradient>
    <linearGradient id="Dégradé_sans_nom_496" data-name="Dégradé sans nom 496" x1="203.94" y1="394.93" x2="210.81" y2="582.79" gradientUnits="userSpaceOnUse">
      <stop offset="0" stop-color="#8a8510"/>
      <stop offset="1" stop-color="#6a6407"/>
    </linearGradient>
  </defs>
  <g id="Calque_1-2" data-name="Calque 1">
    <g>
      <path class="cls-23" d="M43.94,0c4.33,17.78,6.57.72,11.28,15.04,7.39-3.66,5.85,2.2,6.84,2.73.57.31,3.42-.53,5.47.68,5.83,3.44,2.18,9.86,11.62,6.15-.04,6.05,4.49,16.34,9.57,8.89,2.74.62-4.88,14.37,7.86,11.28-2.04,8.31-.18,17.32,8.54,9.91l1.03,1.03c-7.19,10.66.74,11.06-4.1,19.82,3.13,4.29,4.72,1.32,6.84,1.71-7.38,7.76-4.67,16.36-10.94,22.56l-2.05-.68c-.13-4.88-2.75-7.45-2.73-7.86.07-1.57,2.6,1.02,4.1-2.73,3.83-9.59-4.04-12.9-4.1-13.67-.02-.22,2.45-2.11,2.73-3.42,1.46-6.75-3.72-4.5-4.1-6.15-.09-.39,3.59-4.68,1.37-7.52-2.67-3.41-5.41,3.52-3.42-7.52-9.32-1.87-2.68-2.18-5.47-8.2-1.54-3.33-6.7-3.65-7.52-4.79-.18-.25.08-4.45-2.39-5.81-3.82-2.1-4.52,2.99-8.89-7.52-7.14-.51-8.75-2.62-9.23-2.73-1.95-.47-3.96,1.25-5.13.68-2.1-1.03,2.41-4.57-7.18-5.81C45.72,4.75,35.65,14.66,40.52,0c1.14,0,2.28,0,3.42,0Z"/>
      <path class="cls-9" d="M154,0c-1.15,5.4-3.83,9.82-6.84,14.36-.03-.46-1.51-2.24-2.05-8.89.17-.26.78-3.29,2.73-5.47,2.05,0,4.1,0,6.15,0Z"/>
      <path class="cls-19" d="M274.99,99.12c-.38.59-8.85,9.76-9.57,10.25,1.06-2.85,2.87-4.21-.68-6.15,10.26-6.98,15.53-23.72,16.41-35.55,2.72,9.28-1.08,23.42-6.15,31.44Z"/>
      <path class="cls-20" d="M97.94,99.8c1.41,20.55,9.96,35.48,25.63,48.53,5.79-5.94-7.57-13.6-11.28-18.8-5.64-7.91-.37-.81,12.3-1.03,2.08,5.23-1.83,3.18,2.73,8.2-.84,2.94,1.81,2.2,5.47,6.49,2.28,2.68,12.9,19.9,12.3,10.6,7.29,7.51,2.45,3.74,2.73,7.18.38,4.62,15.07,1.34,8.89,12.99,1.17,3.91,23.44,3.82,17.77-23.58h4.1c1.89,4.94,3.29,5.82,3.42,6.15.74,1.89,1.39,3.52,2.05,5.47-1.42,4.77-7.57,10-4.1,12.99-1.22.54-1.14-1.32-2.73,0-.49.4-2.72,5.74-7.52,10.25-.09-.02.31.98-1.71.68-14.65-10.23-26.6-23.08-9.23,1.03,1.78,2.47,5.85,7.08,8.2,9.23-1.22,1.24-2,2.28-3.42,3.42-12.41-18.19-28.65-33.09-42.72-49.9-4.59,1.59-2.22,5.24-3.76,6.15-2.9-3.57-5.58-7.16-8.2-10.94-9.11-13.13-15.1-22.66-15.04-38.96,0-.71,2.2-1.07,2.05-6.84l2.05.68Z"/>
      <path class="cls-8" d="M163.57,199.61c-.64.51-8.34,9.11-13.67,2.05-3.3-4.37-6.76-24.3-12.3-10.94l-4.79-2.73c1.04-.78,4.43-5.66,4.1-7.52,4.3-1.37-15.82-19.68-19.82-24.61,1.53-.91-.83-4.56,3.76-6.15,14.07,16.81,30.32,31.71,42.72,49.9Z"/>
      <path class="cls-23" d="M145.11,5.47c.54,6.65,2.02,8.43,2.05,8.89-.31.46-2.79,2.75-4.1,4.79-8.49,13.2-8.45,18.88-4.79,34.86.8,3.47,11.31,31.8,14.36,40.33,3.83,10.73,10.14,23.61,10.25,24.95.15,1.75-.59.03-1.37,1.03-.09.11-.6-.11-.68,0-1.72-7.08-5.03-13.67-7.52-20.51-8.63-23.75-21.77-50.99-17.77-74.17l-2.05,1.03c.94-2.63-.27-2.36,0-3.08.67-1.78,6.77-9.33,6.84-10.25.13-1.77-7.26-14.74,1.71-3.76,1.13-2.14,2.93-3.89,3.08-4.1Z"/>
      <path class="cls-9" d="M158.78,100.49c.58,1.43.66,1.3.68,1.37.89,2.35,1.83,4.53,2.73,6.84.07.17-1.1,1,0,3.76,2.84,7.13,8.17,14.82,10.25,19.82,2.45,5.89,3.89,12.23,6.15,18.11h-4.1c-2.07-9.99-8.78-20.79-12.99-30.08.78-1,1.51.72,1.37-1.03-.11-1.34-6.43-14.22-10.25-24.95l1.71-2.05c6.83,6.87,2.88,7.4,3.08,7.86.27.62,1.33.25,1.37.34Z"/>
      <path class="cls-8" d="M169.72,185.25c1.44.34,3.11,1.63,4.79,1.37-2.36,4.01-4.28,6.28-7.52,9.57-2.35-2.15-6.42-6.76-8.2-9.23-17.37-24.1-5.42-11.25,9.23-1.03,2.02.3,1.62-.7,1.71-.68Z"/>
      <path class="cls-9" d="M138.28,54c-3.67-15.99-3.7-21.67,4.79-34.86,1.21,3.91-2.83,8.55-3.42,12.65-1.69,11.78,3.25,22.31-1.37,22.22Z"/>
      <path class="cls-11" d="M223.72,124.41l-17.09,15.04c-.05-.11-.38.26-1.37-2.05,3.48-4.57,17.08-14.11,17.77-15.04,1.22,0,.46,1.77.68,2.05Z"/>
      <path class="cls-9" d="M153.31,99.8c-1.08-1.06-2.66,2.8-2.73,3.08-1.43,5.78-4.03,30.78-6.15,34.86-.73,1.4-5.15,3.23-6.84,1.71,1.33-7.42,3.27-13.06.68-20.85-4-12.04-18.5-9.34-4.44-11.28,2.32-2.93-2.03-14.42-15.38-11.96,2.33-5.58,10.04-1.97,11.62-7.52,1.52-7.95-12.82-5.47-11.62-15.72,1.14-2.76,9.34.19,10.94-6.84,1.77-7.79-4.06-15.84,4.1-38.62l2.05-1.03c-4,23.18,9.14,50.42,17.77,74.17Z"/>
      <path class="cls-9" d="M124.6,128.51c-12.67.22-17.94-6.88-12.3,1.03,3.71,5.2,17.07,12.85,11.28,18.8-15.67-13.05-24.23-27.99-25.63-48.53,6.26-6.2,3.56-14.8,10.94-22.56,1.96.36,3.79.04,6.84,2.39-15.63,4.29-10.36,27.91-5.81,29.05,14.86-5.25,10.13,4.92.34,8.54-.4,12.9,10.94,2.71,14.36,11.28Z"/>
      <path class="cls-7" d="M153.31,99.8c2.48,6.84,5.8,13.43,7.52,20.51-5.45,6.82-15.28,16.34-15.72,17.43-1.62,4.02,1.09,9.47-3.42,11.96-.29-.29-.98.73-1.03.68-2.74-2.98-4.86-4.85-4.44-8.89.11-1.09,1.35-1.93,1.37-2.05,1.69,1.52,6.11-.31,6.84-1.71,2.12-4.08,4.72-29.09,6.15-34.86.07-.28,1.66-4.13,2.73-3.08Z"/>
      <path class="cls-9" d="M136.23,141.5c-.42,4.04,1.7,5.91,4.44,8.89.04.05.74-.98,1.03-.68,1.19,1.21,2.23,2.88,3.42,4.1.6,9.3-10.02-7.92-12.3-10.6-3.66-4.29-6.3-3.55-5.47-6.49,1.51,1.66,8.18,7.59,8.89,4.79Z"/>
      <path class="cls-9" d="M265.42,109.37c-5.83,4.01-9.56,2.33-9.91,2.73-1.29,1.47,1.24,3.14-2.39,4.1-3.84,1.02-5.98-2.07-8.89,3.76-2.24,4.49,2.62,5-6.15,6.84,9.09,7.83.03,8.47,2.05,10.94,2.49,3.04,10.97-.24,12.99,5.13-10.31,3.59-14.41-3.26-19.14-2.05.63-6.26-3.83-7.19-6.84-11.28-1.51-2.05-1.71-4.87-2.05-5.47-.44-.79-1.07.71-1.37.34-.23-.28.54-2.04-.68-2.05,2.81-3.77-.07-8.63,4.44-12.3-3.5,12.6,5.13,23.1,7.52,21.87,2.49-4.84.15-12.67.34-13.33.2-.68,1.92-.18,2.05-.34,3.73,5.38-1.39-8.04,15.38-8.2,1.13-3.77,6.91-3.4,11.96-6.84,3.55,1.94,1.74,3.3.68,6.15Z"/>
      <path class="cls-2" d="M131.44,648.72c2.53,6.02,6.29,11.89,10.25,17.09.27,1.83.33,2.44,1.37,4.1,3.93,6.32,1.85.14,5.47-1.37-2.39,7.44-1.73,10.02,6.15,22.22.45.7,1.94.18,2.05.34.21.3.48,1.07.68,1.37,5.05,7.3-3.58,6.7-5.13.68-5.38-.28-.7,1.74-5.13,2.05l-4.1-3.42c6.61-.18,10.58.73,7.86-1.37-2.38-.81-7.33,2.78-11.28-1.37,11.58,3,12.4,1.15,9.57-4.79-.82-1.73-5.13-10.75-5.47-11.28-3.32-5.21-10.81-12.76-12.3-15.04-2.67-4.06-5.92-12.89-7.52-15.38h.68c1.28,2.89,4.6,4.21,6.84,6.15Z"/>
      <path class="cls-3" d="M204.58,614.54c-9.39,12.67-2.64,10.48-3.42,16.75-.06.5-3.36,7.29-4.1,9.23-.03.08-1.12-.27-1.37.34-2.06,5.14-3.32,10.9-5.47,16.06-.65.42-2.63,2.55-3.42,3.42-7.72.11-15.21,17.91-27,21.87-7.92-6.21,7.09-25.84,14.01-43.75,3.83-9.92-1.93-11.79,12.3-14.01-.03-.69-8.25.06-9.57.34,1.86-3.03-3.19-1.47-5.47-1.37.15-.21.63-2.22,2.05-4.79l31.44-4.1Z"/>
      <path class="cls-5" d="M169.72,620.69c.16,1.24-.31,2.19.68,3.42-3.13,3.72-14.72,5.46-8.54,12.99l1.71-1.37c-.3.55-3.48,8.04-3.08,8.2,2.3.9,7.28-8.15,13.33-5.47-6.92,17.91-21.94,37.54-14.01,43.75,11.79-3.97,19.28-21.77,27-21.87-4.51,5-13.91,24.72-30.08,30.76-.12-.16-1.6.36-2.05-.34-7.88-12.2-8.54-14.78-6.15-22.22,1.34-4.16,8.06-17.44,10.94-22.22-2.52-5.04-3.65,7.12-7.52,4.44.08-1.35-.12-2.75,0-4.1,2.49,2.11,6.82-9.25,6.84-9.91.08-3.01-2.12-2.77-2.05-5.13,0-.31.44-1.42.68-6.15,3.41.06,4.69-14.5,6.15-22.56.31-1.74.36-3.73.68-5.47,2.52,5.67,4.59,16.36,5.47,23.24Z"/>
      <path class="cls-20" d="M240.13,529.78c-.67,1.88-8.74,5.65,0,15.38-10.36.77-16.48,9.63-7.52,17.09-19.54,3.65-10.25,12.16-10.94,12.99-1.25,1.52-8.2,1.93-11.62,5.13-4.17-2.51-8.45-1.61-7.52-4.1,7.55-9.79,15.47-19.46,21.87-30.08,5.38-7.44,10.45-15.3,15.04-23.24,1.12.17.81,6.49.68,6.84Z"/>
      <path class="cls-8" d="M212.79,594.03c.62,5.48-7.43,4.95-14.36,14.01,2.26,2.55,5.83,2.43,6.15,6.49l-31.44,4.1c.97-1.75,1.82-4.52,2.73-6.15,1.57-2.79,3.22-5.44,4.79-8.2,1.48.16,6.33-6.62,6.84-7.52,8.55.59,17.49,1.93,25.29-2.73Z"/>
      <path class="cls-20" d="M210.05,580.36c-8.82,8.26,2.28,9.67,2.73,13.67-7.81,4.67-16.74,3.33-25.29,2.73.1-.17-.1-.51,0-.68,4.41-7.08,9.97-13.25,15.04-19.82-.93,2.49,3.35,1.59,7.52,4.1Z"/>
      <path class="cls-9" d="M258.59,513.37c-3.71,8.12-10.91-5.76-14.36,8.54,9.02,3.96,2.94,13.65-4.1,7.86.12-.35.43-6.67-.68-6.84,2.09-3.61,4.15-7.28,6.15-10.94.07-.12-.28-.95.68-2.73,2.96,3.44,3.4,2.22,6.15-2.05,6.82.96,5.93,5.73,6.15,6.15Z"/>
      <path class="cls-20" d="M197.06,640.52c-.19,10.47,11.02,7.04,11.62,11.96-1.18,5.1-9.53-1.25-18.46,4.44,2.15-5.16,3.41-10.92,5.47-16.06.25-.61,1.34-.26,1.37-.34Z"/>
      <path class="cls-16" d="M13.86,450.48c-.52,3.28-1.11,5.6,0,8.89-2.69,4.36,5.26,1.13,7.52,5.13-1.73,6.64-8.35,2.44-5.47,10.25,18.7.73,2.42,8.24,2.05,9.57-.17.61,1.48,2.84,1.37,5.13-.12,2.45-1.8-.79-1.37,3.08,1.18,10.61,9.55,30.37,13.67,41.01,20.74,25.22,29.14,58.71,51.27,82.37,6.04,8.62,12.58,17.41,19.14,25.63,1.11,1.4,7.53,6.99,7.52,7.52-.02.68-2.04,1.14-2.05,1.37-.06,1.2,16.15,15.09,17.77,16.06l-10.25,10.25c-19.46-5.91-32.21,1.39-30.08-10.6,2.66-5.49,17.52.16,10.25-12.99-9.39-17-31.73-10.29-34.18-15.04-4.62-8.95,18.85-5.72,6.84-23.93-10.99-16.64-38.9-12.64-30.42-22.22,1.22-1.38,18.99-.52,6.49-20.85-9.81-15.96-28.69-9.47-22.56-19.82,1.03-1.74,17.16-8.96-1.37-12.65-2.13-.42-5.08,2.43-6.15-3.08,2.34-5.31,7.19-2.92,8.89-4.79,2.37-11.61-12.29-6.17-13.67-8.89-.92-7.55,8.3-6.01,8.89-6.84-4.51-21.02-8.53-8.01-13.67-15.72.97-6.63,7.37-3.24,8.2-5.47-2.18-10.38-3.84-6.11-7.86-7.86-6.02-2.62-3.28-8.84,5.13-7.18-1.73-13.41-2.37-6.03-8.2-8.54-5.62-8.87,5.67-4.81,6.84-7.86-.11-6.59-3.9-5.59-4.79-6.49-3.82-3.92-5.53-6.28,1.71-7.52,3.77,5.48,5.16-1.15,4.44-4.44-.29-1.3-8.62-5.94-4.44-9.91,12.08.42,3.41-2.02,2.39-2.73-7.98-9.02,3.17-7.03,4.1-7.86,2.22-1.98-3.14-5.88-2.73-9.57.57-5.14,7.44-.94,1.37-12.3,13.73-1.13-2.14-5.66,11.62-12.99-4.63-10.2,1.71-9.05,2.05-9.57.47-.7,3.94-14.95,4.1-16.41,2.44-21.66-5.26-30.9-12.3-49.22,13.33,14.22,18.52,32.73,17.09,51.95-.01.17-2.7,1.88-2.73,2.05-.05.29,2.21,3.59,2.05,5.47-.2,2.39-3.25,1.87-3.42,2.73-.05.24,1.5,4.38,1.37,4.79-.23.67-4.01,1.84-4.1,2.05-.11.26,1.76,3.42,1.37,5.47-.42,2.17-3.34,3.19-3.42,3.42-.74,2.18.74,5.85.68,6.15-.44,2.34-5.19,3.85-5.47,4.79-.36,1.21,1.51,3.97,1.37,4.79-.06.34-3.75,3.41-4.1,5.47-.73,4.32,2.19,5.77,2.05,6.84-.38,3.02-11.28,6.04,2.05,10.94-15.91,9.16-.8,10.68-.68,11.62.08.67-5.04,1.52-6.15,8.54Z"/>
      <path class="cls-9" d="M52.14,153.81c-.04.75,1.38,1.43,1.37,1.71-.45,9.95-2.08,21.63-.68,31.44,1.13,7.95,12.84,26.1,15.04,32.81,9.42,28.74-7.04,49.49-2.73,77.93,1.14,7.52,7.87,24.07,12.3,30.42l-1.37,2.73c-2.21-2.92-4.03-5.98-6.15-8.89-.99-1.35-1.63-3.9-2.73-5.47-2.07-2.92-14.74-20.79-16.75-21.19-.94-.19-11.77,4.22-12.65.34,0-5.04,9.58-1.97,10.94-5.47.42-1.09,2.26-22.09,2.05-23.24-.11-.6-6.54-5.9-1.03-10.6,1.27-1.08,16.62-5.38,11.96-27.69-3.38-16.2-15.22-18.17-21.87-20.85-8.41-7.92.81-8.04,4.79-14.01,10.24-15.37-5-48.6,7.52-39.99Z"/>
      <path class="cls-23" d="M93.84,105.96c-.06,16.3,5.93,25.83,15.04,38.96-2.53,1.41-6.35-3.35-8.2-5.47-.42-.48-.65-.65-.68-.68-3.62-4.45-1.91-3.54-2.05-3.76-1.75-2.79-5.54-8.48-6.15-11.28-1.63-7.45,1.17-5.09,1.37-5.81,1.53-5.53-14.52-10.86-22.56,1.03-.35-5.49-3.8,2.96-2.05,5.47-2.11,4.66-.38,4.88-1.71,6.15-5.77-5-1.15,1.58-2.39,5.13-.41,1.18-3.71,2.26-4.1,3.42-1.37,4.07,4.1,3.09-3.42,13.67,9.4,6.43.67,7.76.68,9.57.01,2.14,8.91.97,2.05,10.25,10.54,3.76-.46,4.86,8.89,22.56,2.73,5.18,7.39,8.28,7.52,8.89.33,1.61-4.41,2.53,4.79,11.62-.93,7.28,2.16,11.49,1.37,20.51-1.12,12.67-12.68,27.23-14.36,50.24-1.46,19.99,6.24,33.4,19.14,48.19.98,6.47-8.47-4.92-9.57-6.49-4.43-6.35-11.17-22.9-12.3-30.42-4.31-28.44,12.16-49.18,2.73-77.93-2.2-6.71-13.91-24.86-15.04-32.81-1.4-9.81.24-21.49.68-31.44.01-.27-1.41-.96-1.37-1.71.44-7.38,2.3-7.52,2.73-9.23.22-.84-2.76-6.61,3.42-10.25-.43-8.28,7.07-11.65,7.52-12.3.1-.14-.81-2.34,0-3.42,1.92-2.57,4.44-3,4.79-3.42.11-.14.57-3.29.68-3.42,4.04-4.69,5.41-3.39,6.84-4.79.3-.29-.46-2.46.34-3.08.64-.49,7.51,5.75,15.38,2.05Z"/>
      <path class="cls-3" d="M123.92,642.57c1.6,2.49,4.84,11.32,7.52,15.38,1.5,2.27,8.99,9.83,12.3,15.04.34.53,4.64,9.55,5.47,11.28.08.41-.9,1.37-1.03,1.37-1.42-.04-20.49-13.05-25.63-5.47-2.25-.96-5.32-2.75-7.52-3.42l10.25-10.25c13,7.82-1.65-5.16-2.05-5.81-.71-1.13-7.12-21.36-10.25-24.61-2.04-2.11-3.59,3.25-3.42-5.81.9.34,3.23-.23,5.81,1.37.59.36,7.79,9.77,8.54,10.94Z"/>
      <path class="cls-5" d="M149.21,684.27c2.83,5.94,2.01,7.79-9.57,4.79-3.52-.91-11.75-6.6-17.09-8.89,5.15-7.58,24.21,5.43,25.63,5.47.12,0,1.11-.96,1.03-1.37Z"/>
      <path class="cls-9" d="M110.93,331.54c.59,2.46,3.39,5.52,5.47,2.73-1.74,9.35,4.74,7.36,5.47,9.91.81,2.86-4.51,4.23,5.81,6.49,8.73,1.91,13.2-2.95,10.6,7.52-2.64-.79-7.37-6.32-6.84.34,4.77.7,7.22,7.07,1.37,5.81-7.49-1.61-15.62-5.95-21.53-10.94-7.8-2.78-22.69-13.9-24.27-10.94-.19-.18-.07.78-4.1-3.42-2.04-2.13-4.35-4.52-6.15-6.84-.17-.22-.51-1.14-.68-1.37l1.37-2.73c1.1,1.57,10.55,12.97,9.57,6.49-12.9-14.8-20.6-28.2-19.14-48.19.8,22.59,14.12,16.53,14.36,18.11.17,1.15-4.53,8.69,7.86,20.17,6.68-8.14,3.65,19.96,20.85,6.84Z"/>
      <path class="cls-9" d="M91.79,123.73c.61,2.8,4.41,8.49,6.15,11.28.14.22-1.57-.69,2.05,3.76-8.83-3.81-17.76-9.3-15.38-20.51,1.81,4.63,4.44,1.69,7.18,5.47Z"/>
      <g>
        <path class="cls-7" d="M108.2,157.23l3.42,10.6,2.05-2.39c.57.94.64,1.3.68,1.37.12.94-.79,2.17-1.37,2.73-5.17,5.05,1.67,7.01,2.73,15.38.14,1.08-1.44,7.63-1.37,8.2.44,3.53,14.18,23.73,17.09,28.37,2.42,3.86,5.68,12.3,9.57,14.36-1.61,1.11-1.51,1.11-3.42,2.05-2.97-3.96-17.18-27.9-18.46-29.05-1.45-1.31-6.66-1.14-8.89-1.71-4.65-4.43-7.99.35-7.52-7.86.1-1.82,3.19-.81,0-6.49l9.57,2.39c-6.84-16.4-11.61-33.53-16.41-50.59,8.31-3.27,9.9,23.98,12.3,12.65Z"/>
        <path class="cls-20" d="M120.5,168.85c-4.53,19.72,4.41,25.07,12.3,19.14l4.79,2.73c-1.78,4.3-4.18,14.36,2.73,15.04v.68c-4.59-.61-7.72,9.93-8.89,15.04-2.91-4.64-16.65-24.84-17.09-28.37-.07-.58,1.5-7.12,1.37-8.2-1.06-8.37-7.91-10.33-2.73-15.38,1.81,7.3,1.97,4.87,4.79-.68,1.59.9,1.13,0,2.73,0Z"/>
        <path class="cls-20" d="M137.59,237.89c-1.47.72-6.62,3.74-7.86,3.42-1.07-.28-1.61-2.47-2.39-3.42-1.06-1.3-2.37-4.57-3.42-5.81-4.08-4.8-8.73-7.62-8.89-8.2-.24-.89,3.33-9.03-4.79-16.75,2.22.57,7.44.4,8.89,1.71,1.28,1.16,15.49,25.1,18.46,29.05Z"/>
        <path class="cls-8" d="M140.33,206.44l.68,1.37c-5.11,7.55.19,9.59,4.79,13.67,3.36,2.98,10.65,3.71-4.79,14.36-3.89-2.05-7.15-10.5-9.57-14.36,1.16-5.11,4.3-15.65,8.89-15.04Z"/>
        <path class="cls-9" d="M100.68,139.45c1.85,2.12,5.67,6.88,8.2,5.47,2.62,3.78,5.3,7.36,8.2,10.94,4,4.93,24.13,23.24,19.82,24.61-2.2-3.45-11.82-6.61-12.3-7.18-2.17-2.56-1.44-16.04-4.1-4.44-1.6,0-1.15.9-2.73,0-1.36-.78-1.4-1.65-2.39-2.73-.04-.05-.8,1.01-1.03.68-.04-.06-.12-.43-.68-1.37-.29-.47-2.33-11.66-5.47-8.2-2.4,11.34-3.99-15.92-12.3-12.65,4.79,17.05,9.56,34.18,16.41,50.59l-9.57-2.39c-1.97-3.51-7.65-8.16-11.62-8.89-1.71-2.52-4.37-5.12-4.1-8.2,14.47-3.17,5.82-14.65-5.13-14.36-3.18-2.46,7.31-6.6,11.96-1.71,1.94-7.93-1.3-16.64-.68-17.77,6.72,1.98-1.55-2.95,7.52-2.39Z"/>
        <path class="cls-23" d="M87.01,175.68c-.27,3.08,2.4,5.69,4.1,8.2-5.15-.94-11.67,1.91-15.72-3.76-1.23-5.38,8.49-3.76,11.62-4.44Z"/>
      </g>
      <path class="cls-9" d="M70.6,118.94c-.16.24-.48,2.01-2.05,5.47-1.75-2.5,1.7-10.96,2.05-5.47Z"/>
      <path class="cls-9" d="M253.12,142.87l-.34,1.37c-12.55,0-13.82,18.24-6.15,23.24,1.16.76,21.03,4.31,12.99,10.25-1.73,1.28-23.69,1.6-20.85,31.79,2.21,23.53,29.43,18.73,15.04,27.69-1.06.66-2.34,1.43-3.42,2.05-.92.53-11.77,1.41-12.3,14.7,21.04,15.4-5.19,5.35-17.77,23.24-13.28,18.87,4.76,14.15,6.15,18.46,2.81,8.71-16.91,4.79-24.61,16.75-1.9,1.6-.92-1.39-3.08-1.37-2.5.03-5.47,4.73-9.23,3.42,7.25-19.66,40.05-74.24,36.23-92.63-2.01-9.68-1.91,6.52-2.05,7.52-3.84,27.88-24.22,56.44-33.5,79.64-3.34-.28-1.48-5.62-2.05-7.18-.1-.28-1.94-.8-2.05-1.03-2.72-5.61-3.56-6.4-9.57-9.23,5.45-5.52,11.61.11,13.33-.34,9.28-12.82-8.89-17.3-7.18-22.9,1.18-3.87,13.25.07,18.46-10.25,7.37-14.61-12.9-21.03.34-19.48.83.1,9.5,6.83,11.28-5.81,1.94-13.75-13.2-14.49,4.44-15.38,5.07-12.19,5.71-29.89-9.23-34.86.16-.54-.93-.78-.68-1.71.09-.36,1.35,1.02,2.73-6.49,3.97,1.78,8.63,2.14,12.3-.34,1.51-13.72,11.61-17.9.68-26.66,4.96.84,10.37-.86,10.94-6.49,4.73-1.21,8.83,5.64,19.14,2.05Z"/>
      <path class="cls-3" d="M156.73,276.85c-1.02,20.03.24,14.1,5.47,17.77,4.43,3.11.37,21.75-7.52,20.51-4.55-2.67-9.27-2.81-14.36-3.42-1.46-1.74-2.68-3.69-4.1-5.47,6.32-10.05,14.01-19.43,20.51-29.39Z"/>
      <path class="cls-2" d="M149.21,324.7c4.72,5.7,9.04,11.09,12.3,17.77,1.09,4.61,1.67,6.68,2.05,11.62.33,4.26.41,4.5,0,8.89-.26,2.78.1,5.6-1.37,8.2-1.08-.63-1.07-.64-2.05-1.37,1.08-15.52-2.48-30.69-12.3-43.07l1.37-2.05Z"/>
      <g>
        <path class="cls-17" d="M207.32,150.39c.57,2.18.66,1.95.68,2.05,2.36,9.29-1.79,16.12,6.15,10.25-.99,2.27-4.53,3.43-4.79,4.44-.09.35,1.37,3.45.68,7.18-1.39,7.51-2.64,6.14-2.73,6.49-.24.93.84,1.17.68,1.71-.23.81-1.66,1.87-2.05,3.42-5.58,2.58,3.09,4.18-5.81,12.99-.18.18-4.85-1.47-1.03,2.05-4.2,6.97,1.84,8.03,1.37,10.6-.15.79-10.18,10.65-10.25,12.3-.16,3.9,6.38,2.21,1.37,9.23-.88-5.48-15.22,10.33-17.77,15.38-3.81,1.46-17.12,20.04-17.77,22.56-.07.27.77,3.44.68,4.44-.04.45.02.91,0,1.37-6.49,9.97-14.19,19.34-20.51,29.39-.11.17-3,1.78-2.73,3.08.22,1.08,6.8,4.6,15.72,15.38l-1.37,2.05c-4.1-5.17-11.85-11.89-18.11-14.36-5.05,5.5-11.97,14.54-13.33,21.87-2.07,2.79-4.88-.28-5.47-2.73-2.33-9.72,5.2-31.15,9.57-40.33.19-.39.98,1.12,1.37.34.39-.8.94-4.69,2.05-6.84,15.72-30.28,60.35-94.75,69.04-116.21.85-2.09.85-8.88,1.37-10.25.22-.57,1.84.37,2.73-2.05.71-1.92,4.76-16.02,5.81-16.06.62-.03,4.06,8.8,4.44,10.25Z"/>
        <path class="cls-9" d="M166.99,0l4.44,19.14c3.73-.31-1.4-11.78-1.71-19.14,6.61,0,13.22,0,19.82,0-5.32,2.93-7.34,4.69-8.2,10.94-1.56,11.27,7.67,29.45,20.85,28.71,8.03,4.38-17.95,9.37-10.6,35.2,4.1,14.4,21.68,4.88,21.19,14.36-1.02,4.16-18.9,3.35-18.46,15.72.35,9.65,12.59,4.53,14.36,12.3-10.33,11.02-6.67,12.6-3.42,20.17.99,2.31,1.32,1.94,1.37,2.05,1.81,4.15,4.75,6.51.68,10.94-.38-1.45-3.82-10.28-4.44-10.25-1.05.05-5.1,14.15-5.81,16.06-.9,2.42-2.52,1.48-2.73,2.05-.52,1.38-.52,8.17-1.37,10.25-8.69,21.46-53.33,85.93-69.04,116.21-1.12,2.15-1.66,6.04-2.05,6.84-.38.78-1.18-.74-1.37-.34.35-12.28-2.88-16.62-3.42-18.8-1.02-4.16,1.03-6.98-3.42-12.3-1.33-1.6-2.01.93-4.79-2.73-7.99-10.52-19.75-28.08-12.99-41.01l2.73-.68c-9.83,17.8,32.55,68.75,36.23,41.7,2.32-17.06-18.78-14.06-7.52-19.48.78.95,1.32,3.13,2.39,3.42,1.24.33,6.39-2.69,7.86-3.42,1.91-.94,1.81-.94,3.42-2.05,15.44-10.65,8.15-11.37,4.79-14.36,20.17-7.51-.29-16.66-4.79-13.67l-.68-1.37v-.68c2.49.24,6.94-3.16,9.57-4.1,5.33,7.06,13.03-1.54,13.67-2.05,1.41-1.13,2.2-2.18,3.42-3.42,3.23-3.29,5.16-5.56,7.52-9.57,2.94-4.99,6.58-7.36,2.73-11.62,1.6-1.32,1.51.54,2.73,0,.59-.26.17,1.24,2.05-.34,6.19-5.2,2.79-10.45,2.05-12.65-.66-1.94-1.31-3.58-2.05-5.47.83-.16,1.42-.85,1.37-1.71-.33-5.13-15.96-36.77-17.77-45.8l-3.42-.34c-.91-2.31-1.85-4.48-2.73-6.84,4.31-.79,2.3-4.53-.68-1.37-.04-.09-1.1.28-1.37-.34-.2-.46,3.75-.99-3.08-7.86l-1.71,2.05c-3.04-8.53-13.56-36.86-14.36-40.33,4.62.09-.32-10.44,1.37-22.22.59-4.09,4.62-8.73,3.42-12.65,1.31-2.04,3.8-4.32,4.1-4.79.72,11.29-10.16,49.31,9.91,45.8,9.81-1.71,14.3-21.99-9.91-29.05l.34-1.71c29.65-2.62,5.56-22.42,5.81-24.27C157.71.23,158.51,12.33,160.15,0c2.28,0,4.56,0,6.84,0Z"/>
        <path class="cls-1" d="M191.6,233.1c-5.4,7.56-23.67,18.73-25.98,31.44-1.87-.04-3.62,3.14-4.79,4.79-1.43,2.01-2.6,4.2-4.1,6.15.08-1-.75-4.18-.68-4.44.65-2.52,13.96-21.1,17.77-22.56,2.55-5.05,16.89-20.86,17.77-15.38Z"/>
      </g>
      <path class="cls-9" d="M214.15,162.69c-7.95,5.87-3.79-.96-6.15-10.25,4.72,2.1,8.61,4.6,6.15,10.25Z"/>
      <path class="cls-8" d="M205.95,185.94c-.25.99-1.54,2.32-1.37,3.08.21.92,10.41,8.1-5.47,11.96-3.82-3.52.84-1.87,1.03-2.05,8.9-8.81.23-10.41,5.81-12.99Z"/>
      <path class="cls-2" d="M156.73,631.63c-.07,2.36,2.13,2.12,2.05,5.13-.02.66-4.35,12.03-6.84,9.91.72-7.93-.44-1.63-2.73,2.39,1.35,1.03,2.55,4.79,2.73,1.71,3.86,2.67,5-9.48,7.52-4.44-2.88,4.78-9.6,18.05-10.94,22.22-3.62,1.51-1.54,7.69-5.47,1.37,3.7-1.22,7.57-22.04,2.73-19.14.64-2.77.58-5.16.68-5.47,1.21-3.75,5.06-12.12,8.89-13.67.24-.1.88.05,1.37,0Z"/>
      <path class="cls-21" d="M123.24,608.39c.1.66-.1,1.39,0,2.05,2.21,14.26,2.29,24.24,8.2,38.28-2.24-1.94-5.56-3.26-6.84-6.15-2.29-5.18-4.33-26.73-5.47-34.18h4.1Z"/>
      <path class="cls-5" d="M143.06,669.91c-1.03-1.66-1.09-2.27-1.37-4.1-.04-.27,1.34-2.32.68-5.47,2-1.6,2.78-6.79,3.42-9.57,4.84-2.9.96,17.92-2.73,19.14Z"/>
      <path class="cls-9" d="M253.8,237.2c14.04,9.02,20.42,26.24,19.14,42.38-.09,1.09-2.97,14.73-3.42,15.38-.56.82-3.01.86-3.42,1.37-.48.59-.47,3.17-2.39,5.13-.68.69-4.27-2.66-4.1,6.15-8.12-1.31-1.58,4.19-4.79,5.47-1.3.52-6.3-4.22-6.84,3.42,16.38,8.08-9.86.83-6.49,13.33,19.21,6.33-1.6,6.32-4.1,12.3-6.21,14.88,11.23,5.81,11.62,12.65-7.51-.22-13.61-5.03-10.94,4.79-2.74,1.92-2.6,5.52-2.73,5.81-.32.67-1.66-1.11-2.05,0-.49,1.4-2.92,23.44-4.1,29.39-5.48,27.54-11.56,54.92-15.72,82.71-4.3,15.71-13.7,27.85-20.51,41.36,3.47-11.54,12.21-21.08,16.41-32.47,6.16-16.71,16.37-89.07,21.87-114.16-1.06-8.61,4.61-37.99-4.1-36.57-1.43-7.81-10.89-5.32-9.57-9.91,1.86-6.47,19.96,8.64,17.77-14.36,8.73,2.58,11.86-5.01,2.05-7.52,1.16-9.42,7.79,5.11,8.54,5.13.27,0,.53-1.86,1.37-2.05,9.27-2.14,5.07-2.79,10.94-8.89.14-.15,2.33.67,3.76-1.71,1.34-2.23.29-6.21.68-6.84.41-.66,3.09.53,4.1-2.73.68-2.18-.74-5.18-.68-5.47.14-.72,2.01-4.67,2.05-5.47.67-13.89-3.97-30.62-17.77-36.57,1.08-.62,2.36-1.39,3.42-2.05Z"/>
      <path class="cls-4" d="M270.21,411.52c-.65-4.35,3.68-8.81-3.08-11.62-4.11.22,1.57,1.53,1.03,4.1-5.42-4.84-8.39-5.69,0-9.23-11.98-6.68-.85-8.2-.68-8.89.29-1.22-10.59-5.85,2.05-10.25.92-2.41-4.21-1.09-4.79-4.79-1.03-6.63,8.35-3.06-.68-10.94,1.59-4.9,4.68-4.46,4.79-4.79.13-.4-3.66-1.46-4.79-5.47,7.28-6.3,1.64-3.8,1.37-8.2-.15-2.48,2.03-3.87,2.05-4.1.15-2.1-.52-11.13,0-13.67.09-.42,1.93-1.59,2.05-2.05.32-1.23-.34-3.69,0-4.79,1.47-4.7,12.99-24.99,15.04-37.94.1-.09-.22-1.39.34-1.37,2.01,16.38-12.32,32.78-10.6,49.56-2.88,6.42-1.22,14.63-.68,21.87.02.25-1.98,1.92-1.37,4.79.09.4,2.82,1.88,2.73,4.79-.04,1.3-2.76,4.69-2.73,5.47.02.71,3.21,3.21,2.73,6.15-.19,1.16-2.73,3.2-2.73,3.42,0,.86,7.33,3.33-.68,11.62,10.68,2.26-2.63,12.89-2.05,13.67.58.79,15.44,3.85.68,12.65Z"/>
      <path class="cls-23" d="M266.11,451.17c-.89,2.84-2.91,6.15,0,8.2-1.86,1.49-1.57,3.05-2.05,5.13.88,1.1,8.36-1.91,7.52,6.15-5.37,4.99-8.1,2.24-8.54,2.39-1.7.57-1.19,5.02-1.71,6.15-2.62,5.69-5.07,4.33-3.42-1.71-3.05-1.89-1.24-.02-2.73,1.03-2.76-5.1,2.97-4.82,2.73-6.49-.1-.72-7.29-2.72-6.15-8.89,2.47-2.57,5.72-2.17,7.86.34,5.7-6.54-8.58-7.43-2.05-14.36,14.91,3.58-8.8-7.62,5.81-10.6-8.17-13.49.77-6.35,2.05-11.62,1.61-6.6-9.6-5.89-3.42-9.91,6.02,6,16.15,3.93,10.94-4.1,5.66,4.64,1.83,8.41-4.1,9.23,2.95,9.06,7.07,7.33-2.05,15.72,14.05,5.31-.23,8.85-.68,9.57-.31.49.29,2.83,0,3.76Z"/>
      <path class="cls-9" d="M261.32,479.19c5.58-1.64,12.09,5.29,5.13,8.2-4.92,2.06-4.84-2.18-9.23,1.37-2.35,1.9-8.51,16.03-10.94,20.51-.97,1.79-.62,2.61-.68,2.73-2.51-.61-5.02-3.63-7.52-2.05.12-4.97-9.06-6.9-8.2-9.23,5.41-4.93,9.71,2.33,14.7,1.03,6.91-1.81,1.68-9.95,1.71-10.6.34-6.98,15.09,1.92.68-8.89,1.53-8.34,7.31-2.28,7.86-2.39.6-.12.25-1.3.34-1.37,1.5-1.05-.32-2.92,2.73-1.03-1.65,6.04.79,7.39,3.42,1.71Z"/>
      <path class="cls-9" d="M252.43,507.22c-2.75,4.27-3.19,5.49-6.15,2.05,2.43-4.48,8.58-18.61,10.94-20.51-2.55,8.99,6.06,1.06,7.52,9.91-4.07,6.48-9.38,2.21-9.91,2.39-.99.34-2.21,5.87-2.39,6.15Z"/>
      <path class="cls-19" d="M270.21,411.52c.42,2.78,1.78.58,2.73,1.37,5.21,8.03-4.91,10.1-10.94,4.1,2.07-1.35,3.72-2.02,6.15-2.39-9.68-7.45-1.23-4.72,0-10.6.54-2.58-5.13-3.89-1.03-4.1,6.76,2.81,2.42,7.27,3.08,11.62Z"/>
      <path class="cls-23" d="M266.11,459.37c-2.91-2.05-.89-5.37,0-8.2,14.82,2.95.64,7.69,0,8.2Z"/>
      <path class="cls-3" d="M173.82,638.47c-6.05-2.68-11.03,6.37-13.33,5.47-.41-.16,2.78-7.65,3.08-8.2,3.29-6.08,5.53-9.33,12.99-10.94,1.32-.28,9.54-1.03,9.57-.34-14.23,2.23-8.47,4.09-12.3,14.01Z"/>
      <path class="cls-22" d="M176.56,624.79c-7.46,1.61-9.7,4.86-12.99,10.94l-1.71,1.37c-6.17-7.52,5.42-9.27,8.54-12.99.03-.04.15.09.68-.68,2.28-.1,7.32-1.67,5.47,1.37Z"/>
      <path class="cls-20" d="M173.14,618.64c-1.42,2.57-1.9,4.57-2.05,4.79-.53.77-.65.65-.68.68-.99-1.23-.53-2.17-.68-3.42l6.15-8.2c-.92,1.63-1.76,4.4-2.73,6.15Z"/>
      <path class="cls-8" d="M180.66,604.29c-1.56,2.76-3.21,5.42-4.79,8.2l-6.15,8.2c-.88-6.89-2.95-17.57-5.47-23.24.42-2.28,1.79-15.66,4.44-15.72,1.78,2.2,17.36,13.56,17.43,14.7.03.48-3.6,4.56-5.47,7.86Z"/>
      <path class="cls-5" d="M159.47,599.5c-.76,4.53.03,4.55,0,4.79-.92,7.05-1.67,13.8-2.05,21.19-.24,4.73-.67,5.84-.68,6.15-.48.05-1.12-.1-1.37,0-.62-7.08-2.7-14.18-3.42-21.19-.14-1.36-1.37-5.84-1.37-6.15.03-2.62,2.1-6.67,2.73-9.57.16-.19-1-1.6,2.73-3.42.83,2.76,1.39,6.01,3.42,8.2Z"/>
      <path class="cls-8" d="M163.57,602.92c-1.46,8.06-2.75,22.62-6.15,22.56.38-7.39,1.13-14.14,2.05-21.19l4.1-1.37Z"/>
      <path class="cls-14" d="M95.21,407.42c.22,4.11-.61.58-2.05,2.73-1.59,2.37-2.3,9.68-.68,12.3,1.12,1.82,5.23,1.68,8.2,2.05.23,4.52-4.62,13.29-4.79,14.01-.1.44,1.54.1,1.37,1.03-.12.62-4.12,3.57-.68,11.28,3.44,7.72,9,4.95,9.57,5.13,3.48,1.1,9.28,3.11,12.3,4.79-3.79,5.53-6.99,11.22-1.03,16.41,2.14.4,2.8-2.14,4.44-2.73-.18,6.59.25,13.23,0,19.82-15.15.63-17.17,5.33-.68,3.42-.22,4.48-1.74,18.89-.68,21.87.92,2.6,1.32,1.75,3.42,2.73-3.18,3.44-.32,3.33,0,5.13,2.4,13.72,7.94,21.66,14.36,33.84-.13.23.13,1.08,0,1.37-1.5,3.16-2.06,6.48-3.42,9.57-1.61,3.66-3.68,8.03-5.47,11.62-1.45-11.34.28-14.26-3.42-25.63-4.28-13.17-17.97-35.69-19.82-40.33-4.19-10.49-5.11-22.97-8.89-33.5-8.39-23.39-20.98-23.48-21.19-78.27-.03-6.71-.72-8.44-.68-8.89,1.03-13.39,5.6,1.41,19.82,10.25Z"/>
      <path class="cls-13" d="M76.07,406.05c.21,54.79,12.8,54.88,21.19,78.27,3.77,10.53,4.7,23.01,8.89,33.5,1.85,4.64,15.54,27.16,19.82,40.33,3.7,11.38,1.97,14.29,3.42,25.63-1.17,2.36-1.62,5.05-3.76,6.84l-5.13-5.47c-.27-.99-.96-2.34-1.37-3.42,2.88-8.38-11.21-25.05-17.09-33.5,1.85-.92,2.41-1.03,3.42-3.08-2.67-13.31-12.64-13.37-12.99-14.36-.47-1.32,6.35-10.39-13.67-21.53,2.45-4.34-4.39-9.46-2.05-13.67,3.67-.55,10.66-.81,7.52-11.28-3.32-11.06-20.67-6.61-17.77-16.41,1.07-3.61,15.04-3.45,10.94-9.23.31-2.94-1.96-3.89-2.05-4.1-10.39-24.1-26.82-22.28-32.47-26.66-8.74-6.77,12.81-7.21,17.09-9.57,5.45-3,8.3-13.9,16.06-12.3Z"/>
      <path class="cls-7" d="M25.49,505.85c4.81,6.97,4.21-4.45,12.99-.34-9.32,5.55-3.4,21.75,3.76,26.32,1.89,1.21,6.2,1.28,6.49,1.71.59.85-1.77,5.41,3.08,8.54,16.62-2.78,3.67,2.01,13.33,6.15.08.03-.25,1.22.34,1.37,4.31,1.08,14.82-1.78,20.17,1.37-21.66,2.4-21.12,27.45-2.39,34.86,1.45.57,2.83-.76,3.08-.68,2.29.75,6.62,2.89,8.2,4.79-4.56,12.18,5.32,17.76,5.47,18.8.68,4.79-6.72.87,4.1,15.04,2.8,3.66-.2,4.37,5.47,6.49-.18,9.06,1.38,3.7,3.42,5.81,3.13,3.25,9.55,23.48,10.25,24.61.41.65,15.05,13.63,2.05,5.81-1.62-.97-17.83-14.87-17.77-16.06.01-.23,2.03-.69,2.05-1.37.01-.53-6.41-6.12-7.52-7.52-6.56-8.23-13.1-17.01-19.14-25.63-17.89-25.54-19.21-32.96-30.76-53.66-9.56-17.14-23.27-33.11-28.03-52.64-1.2-4.91-1.38-5.69,1.37-3.76Z"/>
      <path class="cls-9" d="M117.77,407.42c-4.81,1.52,17.73,24.02,18.46,18.46,3.08,2.87,8.13,1.2,8.54,1.37,1.75.72-1.28,3.56,4.44,4.1,2.69.25,5.5-.18,8.2,0,.06.38,1.48-.91,2.73,6.49.66,3.9-1.67,7.08,0,11.28-.94,1.42-8.76,7.28-8.89,7.86-.12.57,4.55,6.87,4.1,10.94-.31,2.77-8.7,13.86-8.89,14.7-.83.16-1.41-.29-2.05-.68-2.77-5.05-8.12-13.91-13.67-15.72-1.35-.44-2.51-3.03-2.73,1.37-.22,0-.47.03-.68,0,.04-1.36-.06-2.74,0-4.1.44-10.88-9.24-12.41-8.2-15.72l2.05.68c4.1,1.87,6.46-3.33,9.57-5.81l-8.89-11.28c.03-.22-.03-.46,0-.68.01-.07,1.5.18,1.37-.34-.35-1.39-19.08-10.68-21.87-11.96,2.07-4.59-4.21-7.44-8.2-8.2,1.44-2.16,2.27,1.38,2.05-2.73-.09-1.62-19.2-18.71-21.87-23.93-.3-.59-1.88-5.25-2.05-6.15-.5-2.58.24-2.21.68-4.79,9.08,18.45,15.32,5.49,29.74,3.42,3.63,2.31-14.02,3.79-7.18,19.48,7.03,9.66,32.01-10.05,19.14,2.73-.58,3.98.52,7.1,4.1,9.23Z"/>
      <path class="cls-9" d="M25.49,505.85c-2.75-1.93-2.56-1.15-1.37,3.76,4.76,19.53,18.47,35.5,28.03,52.64,11.55,20.7,12.88,28.12,30.76,53.66-22.12-23.67-30.53-57.15-51.27-82.37-4.12-10.64-12.49-30.4-13.67-41.01-.43-3.86,1.25-.63,1.37-3.08,16.48,0-1,6.05,6.15,16.41Z"/>
      <path class="cls-19" d="M82.91,339.06c-2.19,1.65-4.56-.66-7.86,0-8.43,1.68-9.04,21.38-3.08,33.5-.44,2.57-1.18,2.21-.68,4.79l-12.3-5.81c-1.16-5.36,18.79,1.7-1.37-13.67,16.01-6.73,4.27-14.48,19.14-25.63,1.81,2.31,4.11,4.71,6.15,6.84Z"/>
      <path class="cls-20" d="M102.05,548.23c5.88,8.44,19.97,25.12,17.09,33.5-.89-2.35-3.96-5.97-5.47-8.2-.91-1.35-.75-2.96-1.37-3.76-4.69-6.08-17.46-14.58-17.77-15.72-1.53-5.58,6.95-5.53,7.52-5.81Z"/>
      <path class="cls-2" d="M119.14,581.73c.41,1.07,1.1,2.43,1.37,3.42,1.04,3.79,1.7,16.39,2.73,23.24h-4.1c-1.78-11.63-3.69-23.24-5.47-34.86,1.5,2.23,4.58,5.85,5.47,8.2Z"/>
      <path class="cls-9" d="M76.75,495.6c-2.34,4.21,4.51,9.33,2.05,13.67-8.55-4.76-13.78-3.1-15.72-7.86,2.29-7.2,8.93-5.1,13.67-5.81Z"/>
      <path class="cls-7" d="M94.53,589.93c-1.59-1.89-5.91-4.03-8.2-4.79,6.53-9.29,16.9-5.68,16.41-3.08-1.93,1.01-7.75,6.65-8.2,7.86Z"/>
      <path class="cls-23" d="M95.21,407.42c-14.23-8.84-18.79-23.65-19.82-10.25h-.68c.12-4.72-3.47-7.7-6.15-10.94.91-.52,3.3,1.57,4.79-2.73,2.67,5.22,21.79,22.31,21.87,23.93Z"/>
      <path class="cls-23" d="M75.39,454.58c.09.21,2.36,1.16,2.05,4.1-6.93-2.19-11.92,1.95-12.65,2.05-10.56,1.41-2.93-9.18,10.6-6.15Z"/>
      <path class="cls-9" d="M85.64,550.97c-5.34-3.15-15.85-.29-20.17-1.37-.59-.15-.27-1.33-.34-1.37,6.94-3.65,16.58-4.31,21.87,2.39l-1.37.34Z"/>
      <path class="cls-9" d="M74.7,397.16c-7.16-.96-15.27-5.71-6.15-10.94,2.68,3.24,6.27,6.22,6.15,10.94Z"/>
      <path class="cls-23" d="M69.92,321.97c-13.38,3.06-15.56,1.11-2.73-5.47,1.11,1.56,1.75,4.12,2.73,5.47Z"/>
      <path class="cls-9" d="M13.86,459.37c-1.11-3.29-.52-5.6,0-8.89,9.42,2.8,8.4,5.42,0,8.89Z"/>
      <path class="cls-20" d="M132.81,364.35l8.54,5.47c4.97-1.02-10.77-14.08,3.08-5.47-1.76,5.07,2.79,5.67,3.42,7.18,2.25,5.38.87,17.17,1.37,23.58-2.08-.22-16.03-25.99-25.63-32.81-10.71-.93,19.55,25.91,3.76,20.51-9.77-9.52-16.81-2.93-11.62-12.3.03-.06,1.4.2,1.37-.34-.21-3.01-11.88-11.83-14.36-14.01-4.1-3.62-9-6.63-12.99-10.25-.96-.87-1.79-2.51-2.73-3.42,1.58-2.96,16.47,8.16,24.27,10.94,5.91,4.99,14.04,9.33,21.53,10.94Z"/>
      <path class="cls-20" d="M138.28,358.2c3.66,1.09,10.24,1.62,13.33,3.42,2.97,1.73,4.2,6.17,6.84,8.2.27.2,1.47-.18,1.71,0,.98.73.97.73,2.05,1.37,2.28,1.33,3.14,1.48,5.47,3.42-1.09,1.34-.45,2.51-.68,3.42-8.69-2.53-15.06-9.01-22.56-13.67-13.84-8.61,1.89,4.45-3.08,5.47l-8.54-5.47c5.85,1.26,3.4-5.11-1.37-5.81-.54-6.67,4.2-1.13,6.84-.34Z"/>
      <path class="cls-7" d="M190.23,308.98c-3.24,8.09-4.87,13.34-6.15,22.22-.08.55-1.29.14-1.37.68-.26,1.97-.89,30.65-1.37,39.65-.13,2.45-.38,4.23,1.37,3.76-.09.9.1,1.84,0,2.73-.37,3.34-.79,6.96-1.37,10.25-3.51-.72-1.89,4.62-3.76,6.84-.84,1-6.86,2.52-7.18,2.73,4.98-10.48,3.17-21.71-.68-32.13-1.42-3.84-2.44-4.25-3.42-6.15-.51-.99-.77-5.96-2.73-5.47-.38-4.94-.96-7.01-2.05-11.62-4.24-18-2.75-8.08-5.47-11.28-5.34-6.28-10.36-13.1-15.72-19.48,5.09.61,9.8.75,14.36,3.42.36.21-.3,5.29,6.49,2.05,4.67-2.23,5.28-13.88,6.15-14.36.73-.4,6.94,6.88,15.38,2.05,1.26-.72,3.49-2.55,3.42-4.1.11.22,1.95.74,2.05,1.03.57,1.56-1.28,6.9,2.05,7.18Z"/>
      <path class="cls-20" d="M201.85,312.4c-10.66,16.55,4.73,14.03,5.81,14.36,8.61,2.62-7.18,13.25,3.76,16.41-.23.29-2.42,5.33,0,6.84-3.41,2.04-10.44,10.27-11.62,14.01-2.01,6.38.34,8.48-1.37,13.33-5.45.83-10.66-2.2-15.72.68.1-.89-.09-1.84,0-2.73,2.34-24.07-1.37-38.6,6.84-60.84,3.75,1.31,6.72-3.39,9.23-3.42,2.16-.03,1.18,2.96,3.08,1.37Z"/>
      <path class="cls-23" d="M189.54,314.45c-8.2,22.24-4.5,36.77-6.84,60.84-1.74.47-1.5-1.31-1.37-3.76.48-9,1.11-37.68,1.37-39.65.07-.54,1.29-.14,1.37-.68,1.28-8.88,2.92-14.13,6.15-22.22,9.28-23.19,29.65-51.76,33.5-79.64.14-1,.04-17.2,2.05-7.52,3.82,18.39-28.98,72.97-36.23,92.63Z"/>
      <path class="cls-7" d="M165.62,264.55c-2.13,11.74,3.65,23.33,2.05,35.2l15.04,5.13c-8.44,4.83-14.65-2.45-15.38-2.05-.87.47-1.48,12.12-6.15,14.36-6.79,3.24-6.13-1.84-6.49-2.05,7.89,1.24,11.95-17.4,7.52-20.51,1.64-8.34.07-17.04-1.37-25.29,1.16-1.64,2.91-4.83,4.79-4.79Z"/>
      <path class="cls-6" d="M169.72,365.72c-.59,3.13-.34,6.45-.68,9.57-.35-.09-1.19-.53-1.37-.68-2.33-1.94-3.19-2.08-5.47-3.42,1.46-2.6,1.11-5.43,1.37-8.2,1.82,1.52,1.46-.96,2.73-3.42.98,1.91,2,2.32,3.42,6.15Z"/>
      <path class="cls-3" d="M132.12,623.43l-8.89-12.99c-.1-.66.1-1.39,0-2.05-1.03-6.85-1.7-19.45-2.73-23.24l5.13,5.47c2.14-1.78,2.58-4.48,3.76-6.84,1.79-3.59,3.86-7.96,5.47-11.62,5.27,23.34-2.49,46.66-2.73,51.27Z"/>
      <path class="cls-5" d="M145.11,606.34c-3.16,6.4-6.22,13.22-6.15,20.51.98,4.12-3.47-2.07-6.84-2.05,0-.45-.02-.91,0-1.37.24-4.61,8.01-27.93,2.73-51.27,1.36-3.09,1.92-6.41,3.42-9.57,4.16,13.82,5.41,29.19,6.84,43.75Z"/>
      <path class="cls-2" d="M151.95,610.44c-6.69,9.14-13.33,25.11-5.47,34.86-.1.31-.05,2.7-.68,5.47-.64,2.78-1.42,7.97-3.42,9.57-1.08-5.18-10.54-22.53-10.25-35.55,3.37-.02,7.81,6.17,6.84,2.05,4.81-5.64,5.81-16.3,11.62-22.56,0,.32,1.23,4.79,1.37,6.15Z"/>
      <path class="cls-9" d="M249.02,354.78c.39,5.25-2.31,2.11-9.57,4.79-.06.02.05-.99-1.37,0-2.68-9.82,3.43-5,10.94-4.79Z"/>
      <path class="cls-18" d="M173.82,557.8c-.06.14-1.75-.34-2.05.34-.05.11,1.09-.09,0,2.39-4.7,10.72-10.38,27.57-12.3,38.96-2.02-2.2-2.59-5.45-3.42-8.2-2.38-7.88-4.32-18.1-6.84-25.29,5.65,5.69,2.72-13.74-.68-15.04.81-2.61,1.35-4.92,2.05-7.52,10.8,4.71,21.18,4.45,11.62-8.54,7.25-8.63,11.64-6.09,12.65-6.49.86-.34,2.87-3.32,3.08-3.42,2.63-1.27,5.1,1.53,7.86.68,2.15,1.73-6.53,14.83-7.86,18.11-1.49,3.68-3.26,9.96-4.1,14.01Z"/>
      <g>
        <path class="cls-15" d="M239.45,359.57c-12.26,17.53,12.51,10.66,10.94,16.06-19.53,14.21-6.89,10.23,3.42,15.72-16.31,4-16.23,21.88,2.39,20.17,4.57,6.33-11.01,2.43-16.75,12.65-4.63,8.24-3.53,18.09,6.15,21.19,2,4.04-16.76,4.74-18.46,19.82-2.16,19.17,15.96,13.52,17.09,17.77.05,9.68-14.22,6.17-21.87,15.04,6.62,13.73-5.11,1.64-17.77,21.19-15.08,23.28,8.49,19.64-6.15,29.39,17.35,9.49,18.74-6.91,21.87-12.3.68-1.18,14.64-7.76-6.49-19.48,5.56-8.02,19.79,12.83,24.27-6.84,2.5-1.58,5.01,1.44,7.52,2.05-2.01,3.66-4.06,7.32-6.15,10.94-4.59,7.94-9.66,15.81-15.04,23.24-12.1,15.68-26.67,30.59-36.91,47.51-1.25,2.07.06,2.29,0,2.39-.1.17.1.51,0,.68-.51.9-5.35,7.68-6.84,7.52,1.87-3.3,5.5-7.38,5.47-7.86-.07-1.14-15.65-12.49-17.43-14.7-2.65.06-4.02,13.44-4.44,15.72-.32,1.73-.37,3.73-.68,5.47l-4.1,1.37c.03-.24-.76-.26,0-4.79,1.92-11.4,7.6-28.24,12.3-38.96,1.93,1.51,1.77-1.4,2.05-2.73,5.93-13.14,12.65-26.08,19.14-38.96,6.8-13.51,16.2-25.64,20.51-41.36,4.16-27.79,10.25-55.17,15.72-82.71,1.18-5.95,3.61-27.99,4.1-29.39.39-1.11,1.74.67,2.05,0,.14-.29,0-3.89,2.73-5.81,1.42-.99,1.3.02,1.37,0Z"/>
        <path class="cls-9" d="M224.41,546.18c-6.4,10.62-14.33,20.29-21.87,30.08-5.06,6.57-10.63,12.75-15.04,19.82.06-.1-1.25-.32,0-2.39,10.24-16.92,24.82-31.82,36.91-47.51Z"/>
        <path class="cls-9" d="M173.82,557.8c-.28,1.33-.12,4.24-2.05,2.73,1.09-2.48-.05-2.28,0-2.39.3-.68,1.99-.2,2.05-.34Z"/>
      </g>
      <path class="cls-3" d="M147.16,560.54c.78,1.85,1.39,3.58,2.05,5.47,2.51,7.19,4.46,17.41,6.84,25.29-3.74,1.81-2.58,3.23-2.73,3.42-3.54,4.2-5.4,5.93-8.2,11.62-1.42-14.56-2.68-29.93-6.84-43.75.13-.28-.13-1.13,0-1.37,1.59-2.76.84-4.59,8.89-.68Z"/>
      <path class="cls-9" d="M104.78,424.51c3.35,6.31,6.42,24.04,12.99,21.87.31.61.56,1.31,1.37,1.37-1.03,3.31,8.65,4.84,8.2,15.72l-3.42.34c-.55,6.82,2.88,3.69,3.42,3.76.22.03.46,0,.68,0,1.26,0,4.14,1.8,2.73-1.37,5.55,1.81,10.9,10.67,13.67,15.72-3.08-1.89-9.78-14.44-10.94-11.96,3.92,6.55.7,6.12.68,6.49-.96.6-3.58-.57-6.84-1.37-.24-.06-2.32-1.87-4.79-1.37-2.01-7.53,2.25-9.47-4.1-12.99-3.02-1.67-8.83-3.68-12.3-4.79,5.55-6.63,10.38-9.26,0-14.36.38-5.86-1.08-11.93-4.1-17.09.14.02-.59-.58,2.73,0Z"/>
      <path class="cls-8" d="M125.97,521.57c3.27,6.27-1.07,14,7.86,22.56.99.24,1.35-1.05,2.39-1.37,2.17,3.94,8.91,12.21,10.25,15.04.89,1.87.63,2.6.68,2.73-8.04-3.9-7.3-2.08-8.89.68-6.41-12.18-11.95-20.12-14.36-33.84-.32-1.8-3.18-1.69,0-5.13.69-.74,1.98-.61,2.05-.68Z"/>
      <path class="cls-8" d="M102.05,424.51c3.03,5.16,4.48,11.23,4.1,17.09-2.05-1.01-6.46-1.83-8.89-2.05.18-.93-1.47-.59-1.37-1.03.17-.72,5.01-9.5,4.79-14.01.44.06.93-.06,1.37,0Z"/>
      <path class="cls-23" d="M101.36,418.35c2.8,1.29,21.53,10.58,21.87,11.96.13.52-1.36.27-1.37.34-1.86-1.27-4.18-1.78-6.15-2.73-7.88-3.83-5.57-2.48-10.94-3.42-3.33-.58-2.6.02-2.73,0-.44-.06-.92.06-1.37,0-2.97-.37-7.08-.23-8.2-2.05,3.62-1.4,7.43-1.2,6.49-6.15,2.49,6.18,2.15,1.94,2.39,2.05Z"/>
      <path class="cls-7" d="M141.01,408.1c-3.89,4.52-10.76,12.22-4.79,17.77-.73,5.56-23.26-16.94-18.46-18.46,6.81,4.05,14.15,1.09,19.82-3.42,1.65,1.47,2.44,3.19,3.42,4.1Z"/>
      <path class="cls-9" d="M144.43,481.93c.64.39,1.22.84,2.05.68-.93,4.21,6.81,18.61-2.39,26.66-1.02.15-2.26-1.65-3.08-2.05-.08-.83.65-.65.68-.68,4.71-4.48,3.34-21.4,1.71-21.87-6.11,4.79-8.82,8.39-8.54-2.39l-1.37-.34c0-.28.52-2.06.68-5.47.02-.38,3.23.06-.68-6.49,1.15-2.48,7.85,10.08,10.94,11.96Z"/>
      <path class="cls-8" d="M121.87,430.66c-.03.22.03.46,0,.68-.72,5.78-.88,11.3-.68,17.09l-2.05-.68c-.81-.06-1.06-.76-1.37-1.37-.73-1.46-3.3-15.76-2.05-18.46,1.97.96,4.29,1.46,6.15,2.73Z"/>
      <path class="cls-23" d="M156.73,426.56c.14,1.42.47,3.32.68,4.79-2.7-.18-5.51.25-8.2,0l3.42-6.15c1.32,1.32,1.07,1.66,4.1,1.37Z"/>
      <path class="cls-8" d="M149.21,395.11c1.46.16,8.98-6.62,12.3-5.47-.64,1.84-1.79,2.95-1.37,5.13.16.81,2.97,3.18,3.42,3.76.13.17-.29,1.73,2.73,3.42-.67.95-9.37,20.05-9.57,21.19-3.08-2.29-7.02-9.45-9.57-11.96-2.93-2.89-2.78-.45-4.1-1.71-.41-.39-1.63-.97-2.05-1.37-.97-.91-1.77-2.63-3.42-4.1-.06-.05-.63-1.32-.68-1.37l1.37-2.05c10.6,8.56-9.07-15.96-10.94-17.77,15.79,5.4-14.46-21.44-3.76-20.51,9.6,6.83,23.56,32.59,25.63,32.81Z"/>
      <path class="cls-21" d="M138.28,400.58l-1.37,2.05c-16.63-14.58-35.2-22.68-46.48-42.38-.66-1.16-1.78-1.79-1.37-3.42.19,0,.52-2.3,1.71-2.05.7.15,5.95,9.77,7.86,11.96,8.09,9.28,18.89,15.2,28.37,22.9,4.74,3.85,9.74,9.69,11.28,10.94Z"/>
      <path class="cls-9" d="M102.73,356.15c2.47,2.18,14.15,11,14.36,14.01.04.54-1.33.28-1.37.34-6.96,1.68-19.31-3.36-8.89-9.23-2.08-.66-5.16-4.27-5.47-4.44l1.37-.68Z"/>
      <path class="cls-23" d="M89.06,356.83c-.42,1.62.7,2.26,1.37,3.42-5.1,1.86-9.47,4.9-13.67-.34,2.68-5.53,9.92-3.03,12.3-3.08Z"/>
      <path class="cls-23" d="M102.73,356.15l-1.37.68c-5.38-3.04-15.85-.74-11.62-10.94,3.99,3.62,8.89,6.63,12.99,10.25Z"/>
      <path class="cls-8" d="M166.99,378.02c-1.46,5.77-5.26,11.01-5.47,11.62-3.32-1.15-10.85,5.62-12.3,5.47-.49-6.41.88-18.2-1.37-23.58-.63-1.51-5.18-2.1-3.42-7.18,7.5,4.66,13.87,11.15,22.56,13.67Z"/>
      <path class="cls-2" d="M169.04,375.29c-.69,6.27-2.28,18.86-5.47,23.24-.45-.58-3.26-2.95-3.42-3.76-.42-2.18.73-3.29,1.37-5.13.21-.61,4-5.85,5.47-11.62.23-.9-.41-2.07.68-3.42.18.15,1.01.59,1.37.68Z"/>
      <path class="cls-20" d="M198.43,377.34c-.82,2.33-2.85,3.81-2.73,5.13.1,1.15,6.01,5.54,5.47,8.2-.1.49-3.31,2.66-4.1,4.79-4.28,11.5,3.41,12.08,3.42,13.67,0,1.16-3.29,2.23-3.42,2.39-3.74-14.48-8.15,9.95-11.96,10.94-.68.18-11.47-1.75-14.01-.68,4.15-11.07,8.19-21.81,10.25-33.5.58-3.3.99-6.91,1.37-10.25,5.06-2.89,10.28.14,15.72-.68Z"/>
      <path class="cls-8" d="M197.06,411.52c-8.83,10.85-3.67,10.94-5.47,15.38-.56,1.38-14.06,19.11-16.41,24.95-21.11-8-9.47-15.77-4.1-30.08,2.55-1.06,13.33.86,14.01.68,3.81-.98,8.22-25.41,11.96-10.94Z"/>
      <g>
        <path class="cls-9" d="M192.96,518.84c-6.49,12.88-13.21,25.83-19.14,38.96.84-4.05,2.61-10.33,4.1-14.01,1.33-3.28,10.02-16.38,7.86-18.11-2.76.85-5.23-1.96-7.86-.68.13-2.69-1.63-4.05-4.1-3.42l-2.05-4.1c8.08-8.61,5.23-17.61,6.15-20.17.4-1.12,8.65,1.3,10.25-8.2,2.21-13.13-9.84-20.51-11.62-15.38-2.75-3.01-2.81-7.24-4.79-10.6-1.93-3.29-10.9-12.2-11.62-14.01-1.67-4.2.66-7.38,0-11.28-1.26-7.41-2.68-6.11-2.73-6.49-.22-1.46-.55-3.37-.68-4.79-.16-1.64-.27-1.83,0-3.42.2-1.15,8.9-20.24,9.57-21.19.88-1.23,2.79-3.21,4.1-4.1.32-.22,6.33-1.73,7.18-2.73,1.87-2.22.25-7.56,3.76-6.84-2.06,11.68-6.1,22.42-10.25,33.5-5.37,14.31-17.01,22.07,4.1,30.08-5.13,12.74,1.8,11.84,2.05,13.33.21,1.25-3,2.32-.34,4.44,7.6-3.89,7.17,1.47,10.94,2.73,16.7,5.6,20.51-15.7,7.86-27.69.75-3.43,13.22-.65,15.72-8.89,2.51-8.26-6.91-9.37-6.84-10.25,14.15-2.57,12.51-13.75,1.03-16.06-1.28-7.92,11.06-1.39,14.7-9.23,1.63-13.74-14.44-7.45-7.86-16.06,15.7,5.23,11.84-17.32.34-20.85,4.84-4.35,8.81-1.44,9.91-1.71,4.75-1.18,3.2-20.29-11.28-11.62-2.42-1.5-.23-6.55,0-6.84,5.37-6.66,12.49,6,15.72-7.52,8.71-1.42,3.04,27.96,4.1,36.57-5.5,25.09-15.71,97.45-21.87,114.16-4.2,11.39-12.94,20.93-16.41,32.47Z"/>
        <path class="cls-3" d="M175.53,400.58c3.82.22-11.23,31.88-12.99,34.86-3.51-11.6,5.08-26.36,12.99-34.86Z"/>
      </g>
      <path class="cls-2" d="M173.82,521.57c-1.6.41-19.64,13.95-21.19,15.72l-1.37-3.42c2.12-1.54,19.61-15.45,20.51-16.41l2.05,4.1Z"/>
      <path class="cls-2" d="M156.73,423.14c-.27,1.59-.16,1.78,0,3.42-3.03.29-2.78-.05-4.1-1.37-1.28-1.29-7.64-12.61-9.57-15.72,1.32,1.26,1.17-1.18,4.1,1.71,2.55,2.51,6.49,9.67,9.57,11.96Z"/>
      <path class="cls-3" d="M151.26,533.88l1.37,3.42c-4.66,5.32-1.58,4.39-2.05,6.15-.7,2.6-1.24,4.91-2.05,7.52-.7,2.24-1.1,4.7-2.05,6.84-1.34-2.83-8.08-11.1-10.25-15.04,6.3-1.93,7.65-3.71,10.25-5.47,1.57-1.06,3.24-2.3,4.79-3.42Z"/>
      <g>
        <path class="cls-8" d="M127.34,475.09c2.57,7.66-1.49,38.37-.68,40.67.19.53.92.34,1.37.34-1.37,1.15-2.22,6-7.52,3.42-1.06-2.99.46-17.4.68-21.87,0-.2.58-.65.68-3.42.25-6.59-.18-13.23,0-19.82.05-.02-.26-.49.68-.68,2.47-.5,4.54,1.31,4.79,1.37Z"/>
        <path class="cls-12" d="M130.07,515.42c0,.23,0,.46,0,.68-1.6,1.6-2.54,3.84-4.1,5.47-.07.08-1.36-.06-2.05.68-2.1-.99-2.5-.14-3.42-2.73,5.3,2.58,6.15-2.27,7.52-3.42.51-.42,1.33-.81,2.05-.68Z"/>
        <path class="cls-20" d="M134.17,476.46c-.16,3.41-.69,5.19-.68,5.47l-.68.68-1.37.34c.75,10.75-1.63,21.79-1.37,32.47-.72-.12-1.54.26-2.05.68-.45,0-1.18.19-1.37-.34-.8-2.31,3.26-33.01.68-40.67,3.26.79,5.87,1.97,6.84,1.37Z"/>
      </g>
      <path class="cls-20" d="M115.72,427.92c-1.25,2.7,1.32,17,2.05,18.46-6.56,2.17-9.63-15.57-12.99-21.87,5.36.94,3.06-.41,10.94,3.42Z"/>
      <path class="cls-20" d="M143.74,531.83l2.73,5.47c-2.6,1.76-3.95,3.54-10.25,5.47-1.04.32-1.4,1.6-2.39,1.37-8.93-8.56-4.59-16.29-7.86-22.56,1.56-1.63,2.5-3.87,4.1-5.47.11,3.62,2.48,25.31,6.49,25.29,2.27-3.27,4.81-6.39,7.18-9.57Z"/>
      <g>
        <path class="cls-8" d="M176.56,473.72c-3.77,29.45-16.49,36.15-28.03,50.24-1.91,2.33-3.27,5.83-4.79,7.86-2.37,3.19-4.9,6.3-7.18,9.57-4.01.02-6.38-21.67-6.49-25.29,0-.23,0-.46,0-.68-.26-10.68,2.11-21.72,1.37-32.47l1.37-.34c-.09,5.86,0,12.18,2.05,17.77.99,2.69-.23,3.7,6.15,6.84.81.4,2.05,2.2,3.08,2.05,9.2-8.05,1.47-22.45,2.39-26.66.18-.84,8.58-11.92,8.89-14.7.45-4.06-4.23-10.37-4.1-10.94.13-.58,7.94-6.45,8.89-7.86.72,1.82,9.69,10.72,11.62,14.01,1.97,3.36,2.04,7.59,4.79,10.6Z"/>
        <path class="cls-9" d="M147.16,519.52c-5.08,2.47-5.85-.9-7.18,3.42-.2-4.23-1.64-3.89-1.71-4.1-.14-.4.94-1.35-2.05-7.86l1.03-1.71c8.47,8.5,13.14.03,9.91,10.25Z"/>
        <path class="cls-10" d="M135.54,500.38h-.68c-2.06-5.59-2.14-11.91-2.05-17.77l.68-.68c.04,2.1,1.69,17.6,2.05,18.46Z"/>
        <path class="cls-1" d="M141.69,506.54s-.76-.14-.68.68c-6.39-3.13-5.16-4.14-6.15-6.84h.68c.17.4,5.64,4.52,6.15,6.15Z"/>
      </g>
      <path class="cls-5" d="M141.69,506.54c-.51-1.64-5.98-5.75-6.15-6.15-.36-.85-2.01-16.36-2.05-18.46l1.37.34c-.27,10.78,2.43,7.18,8.54,2.39,1.63.47,3,17.39-1.71,21.87Z"/>
    </g>
  </g>
</svg>