<?xml version="1.0" encoding="UTF-8"?>
<svg id="Calque_2" data-name="Calque 2" xmlns="http://www.w3.org/2000/svg" viewBox="0 0 2458.53 208.84">
  <defs>
    <style>
      .cls-1 {
        fill: #b9ddf5;
      }

      .cls-1, .cls-2, .cls-3 {
        stroke-width: 0px;
      }

      .cls-2 {
        fill: #e1eff8;
      }

      .cls-3 {
        fill: #fff;
      }
    </style>
  </defs>
  <g id="nuages">
    <g>
      <path class="cls-2" d="M882.76,75.14s-69.08,3.63-66.31,14.54c2.76,10.9,67.01,10.9,67.01,10.9,0,0,12.43,13.08,32.47,13.08s30.39-4.36,30.39-4.36c0,0,12.43,7.27,26.94,7.99,14.51.73,26.94-7.99,26.94-7.99,0,0,11.74,7.99,33.85,7.99s34.54-13.81,38.68-13.81,59.41.73,59.41-8-35.92-9.45-35.92-9.45c0,0-8.29-21.8-26.94-26.17-18.65-4.36-26.25,5.09-28.32,4.36-2.07-.73-11.05-29.8-40.07-30.53-29.01-.73-36.61,15.99-36.61,15.99,0,0-16.58-31.98-48.35-23.26-31.78,8.72-33.16,48.7-33.16,48.7Z"/>
      <path class="cls-3" d="M1069.27,59.87c-18.65-4.36-26.25,5.09-28.32,4.36-2.07-.73-11.05-29.8-40.07-30.53-29.01-.73-36.61,15.99-36.61,15.99,0,0-16.58-31.98-48.35-23.26-18.53,5.09-26.71,20.79-30.33,33.01,5.94-7.95,16.88-18.78,32.57-19.04,24.81-.4,31.69,30.93,31.69,30.93,0,0,4.2-10.85,13.74-12.05,9.54-1.21,13.74,4.82,13.74,4.82,0,0,6.49-18.48,26.34-17.27,19.85,1.21,22.91,24.1,22.91,24.1,0,0,4.58-2.41,10.31-1.61,5.73.8,10.31,9.64,10.31,9.64,0,0,8.02-11.25,22.14-11.25,7.96,0,14.1,2.04,17.95,3.82-4.32-5.02-10.26-9.86-18.02-11.67Z"/>
      <path class="cls-1" d="M1078.5,91.42s-6.49,9.24-17.18,10.44c-10.69,1.21-14.13-7.23-14.13-7.23,0,0-2.29,16.07-21.38,15.26-19.09-.8-25.2-19.68-25.2-19.68,0,0-5.34,20.89-32.07,18.88-26.72-2.01-27.49-18.48-27.49-18.48,0,0-15.65,18.08-35.89,14.46-20.23-3.62-26.34-16.87-26.34-16.87,0,0-26.34,7.23-43.9,3.21-6.23-1.42-9.3-4.62-10.71-8.15-5.23,1.78-8.41,3.9-7.77,6.4,2.76,10.9,67.01,10.9,67.01,10.9,0,0,12.43,13.08,32.47,13.08s30.39-4.36,30.39-4.36c0,0,12.43,7.27,26.94,8,14.51.73,26.94-8,26.94-8,0,0,11.74,8,33.85,8s34.54-13.81,38.68-13.81,59.41.73,59.41-7.99c0-1.49-1.07-2.74-2.8-3.8-7.02,2.76-18.35,6.16-31.73,6.16-22.52,0-19.09-6.43-19.09-6.43Z"/>
      <g>
        <path class="cls-2" d="M2097.09,148.52s-76.62,1.72-68.47,15.44c8.15,13.72,66.84,13.72,66.84,13.72,0,0,11.41,25.73,57.06,29.16,45.64,3.43,65.21-12.01,65.21-12.01,0,0,20.95,16.37,57.06,13.72,32.58-2.39,40.75-12.01,40.75-12.01,0,0,15.24,13.83,44.94,7.82,29.7-6.01,39.98-22.83,39.98-22.83,0,0,51.97,3,57.68-12.62,5.71-15.62-51.97-17.43-51.97-17.43,0,0,0-48.07-38.27-58.89-28.64-8.1-38.27,1.2-38.27,1.2,0,0-6.85-75.12-84.53-82.93-83.14-8.36-100.52,74.51-100.52,74.51,0,0-27.99-7.21-43.41,19.23-12.1,20.74-4.09,43.91-4.09,43.91Z"/>
        <path class="cls-3" d="M2184.37,128.87s.77-28.34,21.45-34.47c20.68-6.13,27.58,13.79,27.58,13.79,0,0,14.56-12.26,28.34-6.89,13.79,5.36,9.19,32.17,9.19,32.17,0,0,0-17.62-16.09-21.45-16.09-3.83-26.81,16.85-26.81,16.85,0,0-.77-24.51-19.15-23.75-18.39.77-24.51,23.75-24.51,23.75Z"/>
        <path class="cls-3" d="M2367.9,92.59c-28.64-8.1-38.27,1.2-38.27,1.2,0,0-6.85-75.12-84.53-82.93-83.14-8.36-100.52,74.51-100.52,74.51,0,0-27.99-7.21-43.41,19.23-12.1,20.74-4.09,43.91-4.09,43.91,0,0,2.85-40.85,22.57-47.96,19.72-7.11,37.19,12.45,37.19,12.45,0,0,.56-40.32,27.61-58.69,27.05-18.38,47.9,17.19,47.9,17.19,0,0,11.83-20.16,41.13-17.79,29.3,2.37,22.54,50.99,22.54,50.99,0,0,11.27-7.11,24.23-4.15,12.96,2.96,16.9,17.79,16.9,17.79,0,0,17.47-16.01,40.01-8.3,22.54,7.71,28.99,41.44,28.99,41.44,0,0,0-48.07-38.27-58.89Z"/>
        <path class="cls-1" d="M2458.13,168.9c.99-2.71.04-5-2.15-6.94-4.53,4.46-12.63,9.98-25.28,10.33-21.41.59-33.25-4.74-33.25-4.74,0,0-13.52,20.16-40.01,24.9-26.48,4.74-43.39-19.56-43.39-19.56,0,0-15.78,20.16-38.32,17.79-22.54-2.37-32.68-25.49-32.68-25.49,0,0-9.02,11.26-24.79,12.45-15.78,1.19-24.79-16.6-24.79-16.6,0,0-23.1,33.79-52.97,32.61-29.86-1.19-47.9-31.42-47.9-31.42,0,0-25.36,11.26-43.39,4.74-9.1-3.29-8.58-8.69-5.84-13.24-10.49,2.29-17.54,5.57-14.77,10.24,8.15,13.72,66.84,13.72,66.84,13.72,0,0,11.41,25.73,57.06,29.16,45.64,3.43,65.21-12.01,65.21-12.01,0,0,20.95,16.37,57.06,13.72,32.58-2.39,40.75-12.01,40.75-12.01,0,0,15.24,13.83,44.94,7.82,29.7-6.01,39.98-22.83,39.98-22.83,0,0,51.97,3,57.68-12.62Z"/>
      </g>
      <g>
        <path class="cls-2" d="M1208.85,57.86s-45.15.93-34.53,11.18c10.62,10.25,44.27,5.59,44.27,5.59,0,0,12.39,16.77,33.64,16.77s30.99-7.45,30.99-7.45c0,0,14.82,8.12,37.18,6.52,18.93-1.35,29.22-13.04,29.22-13.04,0,0,63.74-3.73,46.04-12.11-17.71-8.38-40.73-5.59-40.73-5.59,0,0,.89-47.51-40.72-57.75-45.37-11.17-61.97,28.88-61.97,28.88,0,0-13.88-9.46-28.33-1.86-17.71,9.31-15.05,28.88-15.05,28.88Z"/>
        <path class="cls-3" d="M1314.21,1.97c-45.37-11.17-61.97,28.88-61.97,28.88,0,0-13.88-9.46-28.33-1.86-11.99,6.31-14.64,17.3-15.1,23.75,3.68-4.82,11.59-13.66,21.49-15.82,13.77-3,23.27,11.99,23.27,11.99,0,0,7.12-27.98,30.39-34.48,23.27-6.5,36.57,20.99,36.57,20.99,0,0,6.17-10.99,16.15-8.49,5.83,1.46,11.32,6.51,14.99,12.15-4.31-14.17-14.3-31.4-37.45-37.1Z"/>
        <path class="cls-1" d="M1395.66,65.31c-1.45-.69-2.95-1.27-4.45-1.82-5.51,4.35-13.99,8.67-25.56,7.9-22.32-1.5-22.32-7.99-22.32-7.99,0,0-6.17,18.99-29.44,16.99-23.27-2-29.92-19.99-29.92-19.99,0,0-6.65,22.98-31.34,22.48-24.69-.5-35.14-18.99-35.14-18.99,0,0-20.42,11.49-32.77,6.5-4.62-1.87-6.85-5-7.82-8.19-3.97,1.62-5.69,3.82-2.56,6.84,10.62,10.25,44.27,5.59,44.27,5.59,0,0,12.39,16.77,33.64,16.77s30.99-7.45,30.99-7.45c0,0,14.82,8.12,37.18,6.52,18.93-1.35,29.22-13.04,29.22-13.04,0,0,63.74-3.73,46.04-12.11Z"/>
      </g>
      <g>
        <path class="cls-2" d="M1422.09,105.03s-59.45,0-50.96,12.51c8.49,12.51,46.71,8.94,46.71,8.94,0,0,4.34,21.79,34.07,27.15,29.72,5.36,44.92-11.07,44.92-11.07,0,0,9.52,11.4,35,11.4s36.34-7.83,36.34-7.83c0,0,14.68,9.18,35.67,7.15,23.85-2.31,36.52-9.83,36.52-9.83,0,0,6.68,9.83,31.42,8.04,18.66-1.35,30.14-22.18,30.14-22.18,0,0,43.75-1.94,42.05-9.99-1.7-8.04-41.61-7.15-41.61-7.15,0,0-1.2-27.8-27.07-35.88-20.54-6.42-32.38,1.92-32.38,1.92,0,0-3.57-29.95-32.27-32.17-33.15-2.56-37.37,28.59-37.37,28.59,0,0-9.33-11.78-22.83-5.44-15.08,7.09-11.15,22.42-11.15,22.42,0,0-8.67-12.76-26.33-8.94-10.94,2.37-16.14,9.83-16.14,9.83,0,0-9.5-28.99-39.07-26.81-34.75,2.56-35.67,39.32-35.67,39.32Z"/>
        <path class="cls-3" d="M1675.28,76.3c-20.54-6.42-32.38,1.92-32.38,1.92,0,0-3.57-29.95-32.27-32.17-33.15-2.56-37.37,28.59-37.37,28.59,0,0-9.33-11.78-22.83-5.44-15.08,7.09-11.15,22.42-11.15,22.42,0,0-8.67-12.76-26.33-8.94-10.94,2.37-16.14,9.83-16.14,9.83,0,0-9.5-28.99-39.07-26.81-34.74,2.56-35.67,39.32-35.67,39.32,0,0,16.21-28.02,38.29-25.7,22.09,2.32,28.71,26.03,28.71,26.03,0,0,12.81-16.27,27.39-14.41,14.58,1.86,18.55,17.66,18.55,17.66,0,0,2.65-6.51,9.28-7.9,6.63-1.39,13.69,1.39,13.69,1.39,0,0-8.39-11.15,3.98-18.13,12.37-6.97,23.85,2.79,23.85,2.79,0,0,1.33-20.45,23.85-24.17,22.53-3.72,28.71,24.17,28.71,24.17,0,0,21.2-10.69,41.08-1.39,19.88,9.3,22.88,26.8,22.88,26.8,0,0-1.2-27.8-27.07-35.88Z"/>
        <path class="cls-1" d="M1738.47,115.33c-1.49,2.03-3.99,4.24-8.2,6.3-12.37,6.04-31.8.93-33.13.93s-4.86,13.48-19.44,16.27c-14.58,2.79-13.69-11.62-13.69-11.62,0,0-4.42,7.44-16.34,7.9-11.93.46-18.55-9.76-18.55-9.76,0,0-1.77,14.87-25.62,17.2-23.85,2.32-40.2-12.55-40.2-12.55,0,0-11.04,13.94-27.83,12.55-16.78-1.39-18.11-13.94-18.11-13.94,0,0-4.86,6.51-15.46,6.97-10.6.46-17.23-7.9-17.23-7.9,0,0-6.63,18.59-33.13,16.27-26.5-2.32-32.24-27.42-32.24-27.42,0,0-17.67,5.58-31.8,1.39-6.75-2-9.15-5.37-9.83-8.36-5.78,1.83-8.98,4.39-6.54,7.99,8.49,12.51,46.71,8.94,46.71,8.94,0,0,4.34,21.79,34.07,27.15,29.72,5.36,44.92-11.07,44.92-11.07,0,0,9.52,11.4,35,11.4s36.34-7.83,36.34-7.83c0,0,14.68,9.18,35.67,7.15,23.85-2.31,36.52-9.83,36.52-9.83,0,0,6.68,9.83,31.42,8.04,18.66-1.35,30.14-22.18,30.14-22.18,0,0,43.75-1.94,42.05-9.99-.36-1.7-2.45-3-5.5-4Z"/>
      </g>
      <g>
        <path class="cls-2" d="M77.23,117.34S-9.95,122.26.94,137c10.9,14.74,70.06,11.47,70.06,11.47,0,0,9.34,21.29,38.92,27.85,29.58,6.55,52.93-16.38,52.93-16.38,0,0,12.96,18.28,41.56,15.67,29.07-2.66,44.07-22.22,44.07-22.22,0,0,2.64,11.52,23.35,13.1,15.83,1.21,24.91-8.19,24.91-8.19,0,0,14.03,28.5,65.39,27.85,37.36-.47,63.83-24.57,63.83-24.57,0,0,119.87,6.55,124.54-11.47,4.67-18.02-73.17-19.66-73.17-19.66,0,0,.37-38.53-43.59-50.78-38.57-10.75-63.83,24.57-63.83,24.57,0,0-6.13-43.16-57.29-55.62-43.93-10.7-68.81,16.31-68.81,16.31,0,0-22.29-34.8-62.27-27.85-45.94,7.99-51.37,49.14-51.37,49.14,0,0-19.84-21.34-40.48-6.55-18.45,13.22-12.45,37.67-12.45,37.67Z"/>
        <path class="cls-3" d="M476.87,125.34c-1.62-10.88-9.04-36.18-43.14-45.68-38.57-10.75-63.83,24.57-63.83,24.57,0,0-6.13-43.16-57.29-55.62-43.93-10.7-68.81,16.31-68.81,16.31,0,0-22.29-34.8-62.27-27.85-45.94,7.99-51.37,49.14-51.37,49.14,0,0-19.84-21.34-40.48-6.55-10.36,7.43-13.01,18.4-13.35,26.59,5.66-8.06,15.54-19.03,27.38-19.03,18.71,0,30.91,17.11,30.91,17.11,0,0,15.45-45.35,46.36-47.92,30.91-2.57,39.85,37.65,39.85,37.65,0,0,6.51-15.4,17.89-16.26,11.39-.86,18.71,12.84,18.71,12.84,0,0,26.84-26.53,52.87-21.39,26.03,5.13,28.47,41.08,28.47,41.08,0,0,12.2-5.99,19.52-3.42,7.32,2.57,13.01,18.83,13.01,18.83,0,0,24.4-41.08,61.81-29.95,34.41,10.23,42.65,26.94,43.76,29.56Z"/>
        <path class="cls-1" d="M425.95,161.57s119.87,6.55,124.54-11.47c.18-.71.2-1.38.14-2.04-10.94,4.2-33.27,10.27-65.47,6.76-47.17-5.13-50.43-21.39-50.43-21.39,0,0-13.83,20.54-35.79,23.1-21.96,2.57-26.03-14.55-26.03-14.55,0,0-5.69,31.66-37.41,22.25-31.72-9.41-37.41-27.38-37.41-27.38,0,0-4.88,13.69-26.03,17.11-21.15,3.42-33.35-36.8-33.35-36.8,0,0-9.76,42.79-46.36,40.22-36.6-2.57-39.04-35.94-39.04-35.94,0,0-17.08,45.35-47.17,40.22-30.09-5.13-34.97-29.95-34.97-29.95,0,0-34.97,11.12-54.49,4.28-5.16-1.81-7.46-4.88-8.08-8.42-6.86,2.56-10.44,5.67-7.67,9.41,10.9,14.74,70.06,11.47,70.06,11.47,0,0,9.34,21.29,38.92,27.85,29.58,6.55,52.93-16.38,52.93-16.38,0,0,12.96,18.28,41.56,15.67,29.07-2.66,44.07-22.22,44.07-22.22,0,0,2.64,11.52,23.35,13.1,15.83,1.21,24.91-8.19,24.91-8.19,0,0,14.03,28.5,65.39,27.85,37.36-.47,63.83-24.57,63.83-24.57Z"/>
      </g>
    </g>
  </g>
</svg>