<?xml version="1.0" encoding="UTF-8"?>
<svg id="Calque_2" data-name="Calque 2" xmlns="http://www.w3.org/2000/svg" viewBox="0 0 1947.77 237.23">
  <defs>
    <style>
      .cls-1 {
        fill: #35a9e0;
        stroke-width: 0px;
      }
    </style>
  </defs>
  <g id="vagues-1">
    <path class="cls-1" d="M3.02,6.91c19.07,9.65,150.84,74.16,275.29,29.35,19.15-6.9,42.49-17.95,66.01-36.26,9.09,8.34,84.56,75.32,202.3,69.06,93.2-4.96,150.88-52.52,163.97-63.88,10.19,8.36,79.21,63.13,183.13,56.97,79.59-4.72,130.57-42.26,144.8-53.52,15.32,10.6,84.27,55.95,185.26,51.79,80.44-3.31,134.89-36.12,153.32-48.34,12.53,9.14,78.2,55.17,174.61,50.07,71.44-3.78,119.59-33.52,136.28-44.89,4.38,4.65,55.76,57.24,140.54,53.52,71.03-3.12,112.62-43.43,119.25-50.07v216.51H3.02C13.47,162.42-7.44,81.72,3.02,6.91Z"/>
  </g>
</svg>