<?xml version="1.0" encoding="UTF-8"?>
<svg id="Calque_2" data-name="Calque 2" xmlns="http://www.w3.org/2000/svg" viewBox="0 0 2336.28 277.64">
  <defs>
    <style>
      .cls-1 {
        fill: #5dbae6;
        stroke-width: 0px;
      }
    </style>
  </defs>
  <g id="vagues-2">
    <path class="cls-1" d="M3.62,8.08c22.88,11.3,180.92,86.79,330.2,34.35,22.97-8.07,50.97-21.01,79.18-42.43,10.9,9.77,101.43,88.15,242.65,80.82,111.79-5.8,180.98-61.46,196.67-74.76,12.22,9.78,95.01,73.88,219.66,66.68,95.47-5.52,156.61-49.46,173.68-62.64,18.38,12.41,101.08,65.48,222.21,60.62,96.48-3.88,161.79-42.28,183.9-56.58,15.03,10.7,93.8,64.57,209.44,58.6,85.68-4.43,143.45-39.23,163.47-52.53,5.26,5.44,66.88,66.99,168.57,62.64,85.19-3.65,135.09-50.83,143.03-58.6v253.39H3.62C16.16,190.08-8.92,95.64,3.62,8.08Z"/>
  </g>
</svg>