<?xml version="1.0" encoding="UTF-8"?>
<svg id="Calque_2" data-name="Calque 2" xmlns="http://www.w3.org/2000/svg" viewBox="0 0 2016.56 313.89">
  <defs>
    <style>
      .cls-1 {
        fill: #86cbec;
        stroke-width: 0px;
      }
    </style>
  </defs>
  <g id="vagues-3">
    <path class="cls-1" d="M0,0c19.16,18.8,65.91,59.33,134.15,67.97,93.64,11.84,161.58-44.75,178.87-60.12,11.38,14.63,76.18,95.13,181,96.72,105.04,1.59,171.52-77.24,183.13-91.49,12.86,13.74,100.69,104.56,215.07,78.42,53.19-12.15,90.75-44.71,110.73-65.35,9.67,12.64,81.22,103.04,191.65,94.11,93.16-7.54,149.88-80.59,161.84-96.72,16.82,18.34,92.67,96.95,204.42,91.49,79.36-3.88,133.22-79.42,155.45-99.27,8.9,11.39,67.96,113.12,157.58,109.72,81.84-3.1,132.65-96.87,142.67-109.72v298.14H2.13C1.42,209.26.71,104.63,0,0Z"/>
  </g>
</svg>