<?xml version="1.0" encoding="UTF-8"?>
<svg id="Calque_2" data-name="Calque 2" xmlns="http://www.w3.org/2000/svg" xmlns:xlink="http://www.w3.org/1999/xlink" viewBox="0 0 490.46 370.31">
  <defs>
    <style>
      .cls-1 {
        fill: #318d99;
      }

      .cls-1, .cls-2, .cls-3, .cls-4, .cls-5, .cls-6, .cls-7, .cls-8, .cls-9, .cls-10, .cls-11 {
        stroke-width: 0px;
      }

      .cls-2 {
        fill: #bcb86e;
      }

      .cls-3 {
        fill: #015062;
      }

      .cls-4 {
        fill: url(#Dégradé_sans_nom_2);
      }

      .cls-5 {
        fill: #036778;
      }

      .cls-6 {
        fill: #8e644d;
      }

      .cls-7 {
        fill: #161310;
      }

      .cls-8 {
        fill: #c86f07;
      }

      .cls-9 {
        fill: #023341;
      }

      .cls-10 {
        fill: #4cafbf;
      }

      .cls-11 {
        fill: #202f36;
      }
    </style>
    <linearGradient id="Dégradé_sans_nom_2" data-name="Dégradé sans nom 2" x1="265.33" y1="200.6" x2="264.78" y2="275.33" gradientUnits="userSpaceOnUse">
      <stop offset="0" stop-color="#f4bb36"/>
      <stop offset="1" stop-color="#db8204"/>
    </linearGradient>
  </defs>
  <g id="Calque_1-2" data-name="Calque 1">
    <g>
      <g>
        <path class="cls-9" d="M28.5,280.74c2.89,4.01.69,8.27,5.59,9.94.08.82-.27,1.78.31,2.48.94,1.13,19.83,14.95,22.67,18.63-1.44-.89-3.22-2.29-3.73-.93.28,4.14-9.36,30.51-10.56,31.68-.64.62-1.49.1-1.86.31-2.79-.31-9.1.44-10.25,0-2.25-.85-13.2-40.25-14.6-45.65-3.06-11.83-2.56-17.86-3.11-18.63-1.13-1.59-14.93,2-12.73-2.79,11.14.97,13.25-1.29,13.97-1.24,2.5.16,10.61,5.82,14.29,6.21Z"/>
        <path class="cls-5" d="M44.03,213.66c2.54,5.57,5.89,19.05,9.32,26.09-16.27,8.99-24.21,31.48-22.36,37.89.23.8.52,1.65.62,2.48-3.19-.1-2.95.64-3.11.62-3.67-.39-11.78-6.06-14.29-6.21,1.01-7.41,14.33-57.41,16.15-59.94,1.96-2.72,9.93-1.66,13.66-.93Z"/>
      </g>
      <path class="cls-7" d="M255.51,86.16c7.3-.16,22.52-2.59,20.19,23.15-.08.85-12.8,2.73-16.77,3.11-7.89.74-16.4.52-24.22,1.86,2.1-19.24-5.25-27.77,12.42-27.64v-50.93c-8.04-.86-51.44-3.69-54.35-2.8-.96.3-2.69,5.88-7.76,1.55-.02-5.63-.88-7.63,4.97-7.14,1.29.11,6.85,1.6,10.87,1.86,15.29,1.01,30.68,1.19,45.96,2.48,1.74-7.73-.63-11-.31-11.49.39-.6,7.48-.55.62-11.18,5.8-.2.99-6.14,4.97-9.01.21,0,.41,0,.62,0-.66,11.09,2.62,8.24,3.11,9.01,1.28,2.02-2.43,1.05-3.11,2.48-.16.34-.21,7.15,0,7.45.54.77,2.56-.15,3.11.62.84,1.2-1.25,11.76.93,12.73,3.35,1.49,53.94.72,56.52,1.86,1.77.78.61,5.41.93,6.83-4.14,3.96-7.91-2.3-8.39-2.48-2.34-.89-43.85-2.12-50-1.55l-.31,49.21Z"/>
      <path class="cls-9" d="M490.34,282.61c-.83,35.25-10.63,49.73-41.97,67.7-12.82.58-40.87-4.06-49.38-3.11-2.92.33-11.37,3.78-15.53,4.35-57.75,7.86-142.09,2.17-201.24-3.11-15.03-1.34-30.37-2.62-45.34-4.35-8.88-1.03-23.97-5.75-25.15-1.86-10.53-4.09-20.88-8.78-30.74-14.29-11.25-6.28-20.08-13.79-23.91-16.15-2.85-3.68-21.73-17.51-22.67-18.63-.58-.7-.23-1.66-.31-2.48,4.53,1.54,32.76,4.83,41.3,6.21,2.25.94,1.36,2.37,1.86,2.48,12.59,2.74,25.16,5.75,37.89,8.07,24.22.03,48.47,1.45,72.67,1.86,22.19.37,157.76-1.25,165.84.62,1.13.26.49,2.67,2.17,1.24,7.51,13.67,22.14,22.24,37.27,25.47,1.13.34,1.98-.8.62-1.24-20.57-19.37-42.64-15.13-35.65-43.16l7.79-9.64h124.49Z"/>
      <path class="cls-7" d="M448.37,350.31c-39,22.36-98.77,20.71-143.17,19.25-34.63-1.13-134.39-10.35-165.84-18.01-9.4-2.29-18.63-5.81-27.64-9.32,1.18-3.88,16.28.84,25.15,1.86,14.97,1.73,30.31,3.01,45.34,4.35,59.15,5.27,143.49,10.97,201.24,3.11,4.16-.57,12.6-4.02,15.53-4.35,8.5-.96,36.56,3.68,49.38,3.11Z"/>
      <g>
        <path class="cls-5" d="M425.7,263.35c-16.9.21-60.04.32-60.04.32-.09-1.45,1.35-7.15,1.35-7.15.09-.34.22-.7.38-1.25,2.89-9.97,9.04-18.8,16.39-26.08,23.44.87,61.48.08,76.13,19.64,7.61-13.35,14.56-17.16,14.56-17.16,8.23,8.92,12.98,19.42,15.06,31.35l-63.82.32Z"/>
        <path class="cls-1" d="M428.49,211.8c17.11.11,34.33,7.28,45.96,19.88,0,0-6.95,3.81-14.56,17.16-14.65-19.57-52.69-18.77-76.13-19.64,12.12-11.99,27.79-17.5,44.72-17.39Z"/>
        <path class="cls-3" d="M490.34,282.61h-126.28l-.65-22.98s12.5.11,13.1.12h50.93l61.4-.12s2.15,9.88,1.5,22.98Z"/>
      </g>
      <path class="cls-11" d="M404.27,197.51c-1.16-.26-4.58-.47-6.21-.62-2.58-13.98,10.56-13,6.21.62Z"/>
      <path class="cls-11" d="M378.8,195.03c.17,2.74-5.45.61-6.21.62-2.62-14.5,8.07-13.73,6.21-.62Z"/>
      <path class="cls-10" d="M149.61,203.1c-8.61,7.09-23.23,20.51-29.81,28.88-3.49,4.44-17.21,26.31-18.01,30.74-30.24-1.8-43.97,3.03-70.81,14.91-1.85-6.41,6.09-28.89,22.36-37.89,3.46-1.91,15.03-6.26,24.22-11.18,6.13-3.28,27.34-16.65,29.19-17.39,2.76-1.1,36.44-7.14,42.86-8.07Z"/>
      <path class="cls-5" d="M114.21,204.97c-2.97.76-10.37,1.29-7.45,6.21-1.85.74-23.06,14.11-29.19,17.39.99-15.44-1.33-54.92,0-64.28,2.29-16.16,21.75-22.59,29.81-6.83,4.23,8.26,4.75,36.17,6.83,47.51Z"/>
      <path class="cls-9" d="M350.85,255.9c-.42,1.2-.94,2.51-1.24,3.73-4.11,16.34-1.97,36.67,6.21,51.55-1.68,1.43-1.05-.98-2.17-1.24-8.08-1.87-143.65-.25-165.84-.62-24.2-.41-48.45-1.83-72.67-1.86-12.72-2.32-25.3-5.34-37.89-8.07-.51-.11.38-1.54-1.86-2.48-8.54-1.38-36.77-4.67-41.3-6.21-4.9-1.67-2.7-5.93-5.59-9.94.16.02-.08-.73,3.11-.62,22.76.75,45.81-3.78,68.63-2.48,1.19-5.98-1.09-14.41,1.55-14.29-.27,1.79-.4,16.89.31,17.39h128.57c2.61-8.2,4.29-16.9,9.01-24.22-.57,4.74-10.65,23.76-6.52,26.09,31.88.69,63.77.07,95.65,0,1.07,0,17.83-.17,18.47-.73,1.07-.92-1.56-19.56,1.71-25.98h1.86Z"/>
      <path class="cls-3" d="M101.79,262.73c-.04.2.03.42,0,.62-2.64-.13-.36,8.3-1.55,14.29-22.83-1.3-45.88,3.23-68.63,2.48-.1-.83-.39-1.68-.62-2.48,26.84-11.88,40.57-16.71,70.81-14.91Z"/>
      <path class="cls-3" d="M349.61,259.63c2.5,6.76,2.28,21.71,1.21,22.63-.64.55-23.86.35-24.93.35-31.88.07-63.77.69-95.65,0l6.02-22.98h113.35Z"/>
      <path class="cls-10" d="M354.15,252.79c-.47,1.16.21,2.27-.25,3.6-.93,0-1.3,3.23-2.23,3.23h-113.62c1.09-2.73,5.74-11.28,7.22-13.66,5.09-1.58,19.46-1.71,26.59-1.86,28.33-.6,57.18-.63,85.52-1.22,2.54,1.06-5.04,7.98-3.22,9.91Z"/>
      <g>
        <path class="cls-8" d="M367,255.24c-.16.55.14.73,0,1.28-6.99,28.03,6.13,59.51,26.71,78.88l-.62,1.24c-15.12-3.23-29.75-11.79-37.27-25.47-8.18-14.88-10.32-35.21-6.21-51.55,2.21.26,1.59-3.4,2.17-3.73.62-.34,7.65.31,9.72-.38.26-.09,3.57-.75,5.49-.27Z"/>
        <path class="cls-6" d="M393.09,336.64l.62-1.24c1.36.44.51,1.58-.62,1.24Z"/>
        <path class="cls-2" d="M354.89,243.48c-28.34.58-56.76.02-85.09.62-7.14.15-19.45.28-24.53,1.86.09-.15-.09-.47,0-.62,4.25-6.71,26.62-31.35,33.23-32.92,5.99-1.42,97.11-.94,114.91-1.24v1.86c-13.39,3.04-29.63,18.93-36.45,30.43h-2.06Z"/>
        <path class="cls-4" d="M349.61,259.63c.31-1.22.82-2.53,1.24-3.73.47-1.33.77-1.94,1.24-3.11.16-.39,1.79-5.08,2.91-7.07.25-.44,2.59-4.34,2.83-4.76,6.82-11.51,22.17-24.89,35.56-27.92v-1.86c-17.79.31-108.91-.18-114.91,1.24-6.61,1.57-28.98,26.83-33.23,33.54l-7.33,15.14c-4.08,8.32-4,12.84-4.78,21.5-64.28,0-66.77-1.86-131.05-1.86-.71-.5-.58-15.6-.31-17.39.03-.2-.04-.42,0-.62.8-4.44,14.52-26.31,18.01-30.74,6.58-8.38,21.21-21.79,29.81-28.88,1.69-.25,4.79-1.65,6.52-1.86,9.1-1.15,37.37-2.4,50-3.11,47.63-2.67,101.29-3.21,149.07-2.48,5.97.09,11.41.11,17.39,0,.76-.01,6.38,2.12,6.21-.62.98,3.66,11.11,1.08,19.25,1.86,1.63.16,5.05.36,6.21.62,3.6.8,20.98,10.32,24.22,14.29-16.93-.11-32.6,5.4-44.72,17.39-7.35,7.28-13.51,16.11-16.39,26.08-.55,2.11-1.07,4.36-1.07,4.36h-16.7Z"/>
      </g>
      <g>
        <path class="cls-5" d="M258.93,112.42c.65,8.24,3.36,16.32,9.94,21.74-4.9,4.05-28.41,1.53-31.37,3.11-1.36.73-5.61,21.02-9.01,29.5-6.67,16.68-9.42,15.2-23.91,24.53-1.03.66-.83,4.7-6.52,2.79l.62-8.38c1.93-8.72,12.24-60.15,13.66-63.04,2.72-5.54,16.3-7.35,22.36-8.38,7.82-1.34,16.33-1.13,24.22-1.86Z"/>
        <g>
          <path class="cls-10" d="M343.4,140.99c-14.63-.89-41.3,2.07-53.42,1.24-6.35-.43-16.15-3.98-21.12-8.07-6.58-5.42-9.28-13.5-9.94-21.74,3.97-.37,15.92-3.07,16.77-3.11,1.89-.08,23.91.45,25.15.62,14.69,2.03,35.58,17.84,42.55,31.06Z"/>
          <path class="cls-5" d="M343.4,140.99c1.32,2.51,2.55,6.2,3.51,9-12.45-.83-36.57-2.29-46.37-3.41-2.86-.33-9.01-1.99-10.56-4.35,12.11.82,38.78-2.13,53.42-1.24Z"/>
        </g>
        <path class="cls-5" d="M289.98,142.24c1.55,2.36,13.14,4.34,16,4.67,1.3,4.37-5.9,32.85-4.51,33.84,2.09,1.48,43.93-7.04,50.28-5.91.82,4.97,2.5,15.87,3.45,20.82-47.78-.72-101.43-.19-149.07,2.48-3.7-3.97-5.42-2.93-9.94-3.11,1.36-2.96,1.79-6.17,2.48-9.32l-.62,8.38c5.69,1.9,5.49-2.13,6.52-2.79,14.49-9.33,17.24-7.86,23.91-24.53,3.39-8.48,7.65-28.78,9.01-29.5,2.96-1.58,26.47.94,31.37-3.11,4.97,4.1,14.77,7.64,21.12,8.07Z"/>
        <path class="cls-7" d="M346.91,150c1.84,6.83,3.55,16.92,4.84,24.84.48,2.96-1.82,5.64-4.82,5.62-13.6-.09-43.71,1.53-45.45.29-1.11-.79-.22-19.22-.47-28.9-.07-2.77,2.21-5.01,4.98-4.94,10.11.23,25.71-.78,36.41-.48,2.13.06,3.97,1.51,4.52,3.57Z"/>
      </g>
    </g>
    <path class="cls-11" d="M106.09,211.28l100.36-13.04s-.79-4.3-10.04-3.11-82.8,9.94-82.8,9.94c0,0-11.46.39-7.53,6.21Z"/>
  </g>
</svg>